<svg width="75" height="75" viewBox="0 0 75 75" fill="none" xmlns="http://www.w3.org/2000/svg">
<path d="M37.909 14.2033C41.1752 14.2033 42.2015 16.5432 43.0625 18.8795C43.4242 19.8716 51.9118 43.0875 52.167 43.7844C52.2349 43.9787 52.189 44.2978 51.8897 44.4134C51.5886 44.5271 47.1787 46.2398 46.9345 46.3315C46.6903 46.425 46.4168 46.2893 46.3287 46.0454C46.2369 45.8052 44.4064 40.7439 44.2008 40.1791H31.6209C31.4227 40.7439 29.5702 45.8162 29.4876 46.0454C29.4031 46.2783 29.1406 46.436 28.8799 46.3315C28.6192 46.2288 24.1927 44.5161 23.9284 44.4134C23.675 44.3143 23.5593 44.0264 23.6475 43.7844C23.9596 42.9151 32.3186 20.0714 32.7445 18.8795C33.5744 16.578 34.6356 14.2033 37.909 14.2033ZM22.9755 55.7444C22.7111 55.7444 22.5 55.9645 22.5 56.2322V61.6585C22.5 61.9262 22.7111 62.1426 22.9755 62.1426H52.8297C53.0996 62.1426 53.3107 61.9262 53.3107 61.6585V56.2322C53.3107 55.9645 53.0996 55.7444 52.8297 55.7444H22.9755ZM37.8797 21.7842L33.6276 34.5383H42.2015L37.9347 21.7842H37.8797Z" fill="#EE2A23"/>
</svg>
