<svg width="200" height="44" viewBox="0 0 200 44" fill="none" xmlns="http://www.w3.org/2000/svg">
<path d="M14.9944 9.47003V15.0488C14.4772 14.9538 14.0079 14.9076 13.5873 14.9076C11.2249 14.9076 9.38142 15.5723 8.05412 16.8999C6.72771 18.229 6.06538 20.1425 6.06538 22.642V34.7841H0V9.75144H2.96185L5.77495 13.4073C7.52196 10.7813 10.5954 9.47003 14.9944 9.47003Z" fill="white"/>
<path d="M40.0271 34.7839H33.9617V7.80446L40.0271 0V34.7839Z" fill="white"/>
<path d="M85.4268 24.1441H65.0942C65.4492 25.9874 66.3807 27.4475 67.8842 28.5261C69.3877 29.6039 71.257 30.1437 73.49 30.1437C76.3359 30.1437 78.6815 29.2378 80.525 27.4244L83.5373 31.3019C82.3721 32.6457 81.1395 33.3941 79.3615 34.081C77.5809 34.7695 75.5771 35.1125 73.3439 35.1125C70.4964 35.1125 67.9887 34.566 65.822 33.4728C63.6544 32.3787 61.98 30.8553 60.7996 28.9017C59.6176 26.948 59.0278 24.7377 59.0278 22.2674C59.0278 19.8295 59.6026 17.6346 60.75 15.6817C61.8985 13.7281 63.4932 12.2047 65.5306 11.1106C67.569 10.0175 69.8667 9.47003 72.4212 9.47003C74.9457 9.47003 77.201 10.0089 79.1906 11.0867C81.1811 12.1662 82.7341 13.6819 83.8499 15.6347C84.9655 17.5884 85.5243 19.8466 85.5243 22.4084C85.5251 22.8139 85.4906 23.3922 85.4268 24.1441ZM67.4972 15.822C66.154 16.9323 65.3376 18.4079 65.0454 20.2513H79.7503C79.4907 18.4404 78.6992 16.97 77.3728 15.846C76.0445 14.7203 74.3959 14.1567 72.4222 14.1567C70.4804 14.1558 68.8387 14.7118 67.4972 15.822Z" fill="white"/>
<path d="M115.611 24.1441H95.2786C95.6327 25.9874 96.5642 27.4475 98.0677 28.5261C99.5729 29.6039 101.441 30.1437 103.674 30.1437C106.519 30.1437 108.865 29.2378 110.71 27.4244L113.656 31.3292C112.492 32.673 111.325 33.3941 109.545 34.081C107.766 34.7695 105.761 35.1125 103.527 35.1125C100.681 35.1125 98.1722 34.566 96.0063 33.4728C93.8379 32.3787 92.1635 30.8553 90.9832 28.9017C89.8028 26.948 89.2113 24.7377 89.2113 22.2674C89.2113 19.8295 89.787 17.6346 90.9354 15.6817C92.0821 13.7281 93.6767 12.2047 95.7142 11.1106C97.7534 10.0175 100.05 9.47003 102.605 9.47003C105.129 9.47003 107.385 10.0089 109.376 11.0867C111.365 12.1662 112.918 13.6819 114.033 15.6347C115.151 17.5884 115.708 19.8466 115.708 22.4084C115.708 22.8139 115.676 23.3922 115.611 24.1441ZM97.6799 15.822C96.3376 16.9323 95.5221 18.4079 95.2299 20.2513H109.935C109.674 18.4404 108.882 16.97 107.555 15.846C106.228 14.7203 104.579 14.1567 102.605 14.1567C100.664 14.1558 99.0222 14.7118 97.6799 15.822Z" fill="white"/>
<path d="M142.665 11.0627C144.655 12.1259 146.216 13.6272 147.348 15.5638C148.479 17.502 149.046 19.7354 149.046 22.2682C149.046 24.7984 148.479 27.0421 147.348 28.9949C146.216 30.9485 144.655 32.4558 142.665 33.519C140.674 34.5805 138.418 35.1125 135.895 35.1125C132.401 35.1125 129.634 33.9878 127.598 31.7381V43.8793H121.531V9.75144H124.891L127.306 13.0318C128.309 11.8445 129.545 10.9541 131.018 10.3596C132.489 9.7677 134.117 9.47003 135.895 9.47003C138.418 9.47003 140.674 10.0012 142.665 11.0627ZM140.724 27.9402C142.163 26.504 142.884 24.611 142.884 22.2682C142.884 19.9245 142.163 18.0332 140.724 16.5953C139.283 15.1574 137.446 14.438 135.216 14.438C133.761 14.438 132.449 14.7605 131.285 15.4003C130.121 16.0411 129.198 16.9555 128.518 18.1436C127.84 19.3308 127.5 20.7054 127.5 22.2682C127.5 23.8301 127.84 25.2056 128.518 26.3928C129.198 27.5801 130.121 28.4945 131.285 29.1361C132.449 29.7767 133.761 30.0975 135.216 30.0975C137.446 30.0975 139.283 29.3781 140.724 27.9402Z" fill="white"/>
<path d="M179.085 24.1441H158.751C159.107 25.9874 160.038 27.4475 161.541 28.5261C163.045 29.6039 164.916 30.1437 167.148 30.1437C169.994 30.1437 172.339 29.2378 174.183 27.4244L177.173 31.2881C176.007 32.6319 174.799 33.3941 173.018 34.081C171.239 34.7695 169.235 35.1125 167.001 35.1125C164.154 35.1125 161.646 34.566 159.479 33.4728C157.311 32.3787 155.638 30.8553 154.457 28.9017C153.276 26.948 152.685 24.7377 152.685 22.2674C152.685 19.8295 153.26 17.6346 154.41 15.6817C155.556 13.7281 157.151 12.2047 159.188 11.1106C161.227 10.0175 163.523 9.47003 166.079 9.47003C168.604 9.47003 170.86 10.0089 172.849 11.0867C174.839 12.1662 176.391 13.6819 177.507 15.6347C178.623 17.5884 179.182 19.8466 179.182 22.4084C179.182 22.8139 179.15 23.3922 179.085 24.1441ZM161.154 15.822C159.811 16.9323 158.994 18.4079 158.704 20.2513H173.407C173.148 18.4404 172.356 16.97 171.029 15.846C169.702 14.7203 168.051 14.1567 166.079 14.1567C164.138 14.1558 162.496 14.7118 161.154 15.822Z" fill="white"/>
<path d="M200 9.47003V15.0488C199.48 14.9538 199.012 14.9076 198.591 14.9076C196.23 14.9076 194.387 15.5723 193.06 16.8999C191.733 18.229 191.069 20.1425 191.069 22.642V34.7841H185.004V9.75144H188.022L190.779 13.4073C192.526 10.7813 195.599 9.47003 200 9.47003Z" fill="white"/>
<path d="M57.1684 34.7839L47.2584 21.9678L56.8683 9.70336L51.064 9.65631L41.4223 21.9601L41.4604 21.9874L51.32 34.7386L57.1684 34.7839Z" fill="white"/>
<path d="M36.4932 39.308H9.32558L12.8594 34.7847H40.0271L36.4932 39.308Z" fill="white"/>
</svg>
