<svg width="59" height="77" viewBox="0 0 59 77" fill="none" xmlns="http://www.w3.org/2000/svg">
<g clip-path="url(#clip0_31_8638)">
<g filter="url(#filter0_bf_31_8638)">
<circle cx="35" cy="30" r="30" fill="white" fill-opacity="0.75"/>
</g>
<path d="M24.8996 17.6265C25.9427 17.007 26.8547 16.1778 27.5615 15.2057C27.8552 14.8013 28.1252 14.3119 28.0003 13.8319C27.8671 13.3206 27.2998 12.9986 26.7591 13C26.2183 13.0014 25.7118 13.2628 25.2827 13.5841C23.5258 14.9007 22.8183 17.3992 23.6332 19.4095L24.8989 17.6265H24.8996Z" fill="#242424"/>
<path d="M23.5212 20.0058C23.4849 19.2066 23.4479 18.4067 23.4116 17.6075C23.3502 16.2623 23.2414 14.7993 22.3162 13.7999C22.0881 13.5535 21.7852 13.3343 21.4448 13.3404C21.0736 13.3472 20.7505 13.6352 20.6214 13.9749C20.4924 14.3146 20.5251 14.6944 20.6145 15.0457C20.8726 16.0614 21.5627 16.9124 22.2339 17.7286C23.194 18.8962 24.1547 20.0637 25.1148 21.2305L23.5205 20.0051L23.5212 20.0058Z" fill="#242424"/>
<path d="M22.8692 53.7632C24.2486 56.5558 22.8232 59.9685 20.6602 62.2388C19.5376 63.4173 17.6356 64.4411 16.3511 63.4329C15.2172 62.5431 15.5075 60.7697 14.8 59.5294C13.8609 57.8853 11.4481 57.6749 9.63542 58.3183C6.52495 59.4232 4.36828 62.313 3.35448 65.3881C3.0705 66.2493 2.86119 67.1806 3.11307 68.0513C3.36494 68.922 4.21408 69.6858 5.13368 69.5714C5.63814 69.5088 6.07492 69.2052 6.45658 68.877C7.8939 67.6421 8.86513 65.9559 10.3038 64.7216C10.585 64.4806 10.9004 64.2498 11.2702 64.1927C12.3377 64.0286 12.9894 65.2601 13.8371 65.9143C14.6877 66.5706 15.8954 66.6557 16.9351 66.3548C17.9747 66.0532 18.8761 65.414 19.7008 64.7264C22.9257 62.038 25.3217 58.4143 26.503 54.4392L22.8692 53.7619V53.7632Z" fill="#242424"/>
<path d="M41.9213 53.1437C38.8624 55.2398 36.465 58.242 35.1303 61.6479C34.8624 62.3321 34.6328 63.0565 34.7054 63.7856C34.7779 64.5147 35.2189 65.2519 35.9306 65.4861C36.6297 65.7162 37.3895 65.4255 38.0433 65.0926C40.0367 64.0769 41.774 62.6323 43.7647 61.6105C45.7546 60.5887 48.1827 60.0195 50.2431 60.8977C51.1096 61.2667 51.9204 61.9815 51.9944 62.9012C52.0362 63.4248 51.8346 63.9374 51.5897 64.4044C50.4887 66.5073 48.4639 68.0656 46.2158 68.9397C43.9677 69.8145 41.5033 70.0514 39.0843 69.9738C37.1488 69.9118 35.1952 69.647 33.4076 68.9206C32.7559 68.6558 32.1056 68.3113 31.6996 67.7483C30.8267 66.5379 31.3981 64.8469 32.218 63.6018C33.0378 62.3566 34.1186 61.1626 34.2525 59.688C34.4667 57.338 32.1922 55.4842 29.951 54.5972L41.9206 53.1424L41.9213 53.1437Z" fill="#242424"/>
<path d="M29.8408 57.3189C41.5075 57.3189 50.9652 48.4147 50.9652 37.4308C50.9652 26.447 41.5075 17.5428 29.8408 17.5428C18.1741 17.5428 8.71643 26.447 8.71643 37.4308C8.71643 48.4147 18.1741 57.3189 29.8408 57.3189Z" fill="#242424"/>
<path d="M37.4757 43.2445C40.1639 42.7858 41.8572 39.7028 41.2578 36.3585C40.6583 33.0141 37.9931 30.6749 35.3049 31.1336C32.6167 31.5923 30.9235 34.6753 31.5229 38.0196C32.1224 41.364 34.7875 43.7032 37.4757 43.2445Z" fill="white"/>
<path d="M26.6059 45.1736C29.2941 44.7149 30.9873 41.6319 30.3879 38.2875C29.7884 34.9432 27.1233 32.6039 24.4351 33.0627C21.7468 33.5214 20.0536 36.6043 20.653 39.9487C21.2525 43.293 23.9177 45.6323 26.6059 45.1736Z" fill="white"/>
<path d="M28.2152 42.8355C29.2079 42.5922 29.7431 41.3483 29.4107 40.057C29.0783 38.7658 28.0041 37.9163 27.0114 38.1595C26.0188 38.4028 25.4836 39.6468 25.816 40.938C26.1484 42.2292 27.2226 43.0788 28.2152 42.8355Z" fill="#242424"/>
<path d="M38.6691 40.9155C39.6617 40.6722 40.1969 39.4282 39.8645 38.137C39.5321 36.8458 38.4579 35.9962 37.4653 36.2395C36.4727 36.4828 35.9374 37.7268 36.2699 39.018C36.6023 40.3092 37.6764 41.1588 38.6691 40.9155Z" fill="#242424"/>
<path d="M10.795 32.6477C10.8969 32.18 11.0232 31.7171 11.1732 31.2617C11.2479 31.0343 11.3288 30.8083 11.416 30.5843C11.4579 30.4768 11.5004 30.3699 11.5444 30.2637C11.5667 30.2106 11.5891 30.1575 11.6114 30.1044C11.5863 30.1636 11.6239 30.0765 11.626 30.0717C11.6414 30.0363 11.6574 30.0016 11.6728 29.9662C12.0663 29.09 12.5505 28.252 13.115 27.4698C13.1938 27.3602 13.2748 27.2519 13.3571 27.1444C13.3983 27.0906 13.4394 27.0375 13.4813 26.9844C13.4422 27.0334 13.5015 26.9585 13.5043 26.9558C13.5287 26.9259 13.5525 26.8959 13.5769 26.8659C13.7478 26.6563 13.925 26.452 14.1079 26.2519C14.2174 26.1321 14.2376 25.9347 14.1079 25.8189C13.9885 25.712 13.7806 25.6909 13.6641 25.8189C12.9901 26.5555 12.3907 27.3581 11.8828 28.2118C11.3749 29.0655 10.9597 29.9635 10.6367 30.8941C10.4559 31.4155 10.3073 31.9465 10.1894 32.4843C10.1552 32.6409 10.2369 32.8227 10.4085 32.8615C10.5662 32.8969 10.7581 32.8152 10.795 32.6477Z" fill="#242424"/>
<path d="M12.8994 58.9289C11.6916 58.7471 10.4259 59.0235 9.44005 59.7397C9.30888 59.835 9.22864 60.0093 9.32772 60.159C9.41144 60.2857 9.61658 60.3714 9.75752 60.2687C9.98149 60.1059 10.2208 59.965 10.4727 59.8486C10.5034 59.8343 10.5334 59.8207 10.5641 59.8078C10.5773 59.8023 10.5906 59.7962 10.6039 59.7908C10.5732 59.803 10.5746 59.8023 10.6087 59.7887C10.6708 59.7642 10.7336 59.7404 10.7971 59.7179C10.9283 59.6723 11.0623 59.6328 11.1976 59.5995C11.333 59.5661 11.4697 59.5395 11.6079 59.5191C11.6142 59.5184 11.7084 59.5069 11.6386 59.5144C11.677 59.5103 11.7146 59.5055 11.753 59.5021C11.82 59.496 11.887 59.4905 11.9547 59.4878C12.0893 59.481 12.224 59.481 12.3579 59.4864C12.4249 59.4892 12.4926 59.4939 12.5596 59.5001C12.598 59.5035 12.6363 59.5082 12.674 59.5123C12.7117 59.5171 12.7124 59.5171 12.6761 59.5123C12.6949 59.515 12.7145 59.5178 12.7333 59.5205C12.8952 59.545 13.0787 59.4803 13.1199 59.3067C13.1541 59.1604 13.0738 58.9561 12.9008 58.9296L12.8994 58.9289Z" fill="#242424"/>
<path d="M49.4137 62.3988C49.45 62.4029 49.4465 62.4022 49.4039 62.3967C49.42 62.3995 49.4367 62.4022 49.4528 62.4049C49.4849 62.411 49.5176 62.4185 49.549 62.4267C49.5804 62.4349 49.6125 62.4444 49.6432 62.4553C49.6586 62.4607 49.6739 62.4662 49.69 62.4723C49.653 62.4566 49.6509 62.456 49.6837 62.4696C49.736 62.4941 49.787 62.5193 49.8365 62.5492C49.8651 62.5663 49.8916 62.5853 49.9195 62.6023C49.9474 62.6228 49.9468 62.6214 49.9154 62.5982C49.9286 62.6085 49.9412 62.6187 49.9537 62.6289C50.004 62.6704 50.0521 62.716 50.0961 62.7637C50.1128 62.7821 50.1282 62.8004 50.1442 62.8188C50.0933 62.761 50.1603 62.8413 50.1686 62.8542C50.2056 62.908 50.2356 62.9645 50.267 63.0217C50.2817 63.053 50.281 63.051 50.2656 63.0149C50.2719 63.0299 50.2782 63.0448 50.2838 63.0598C50.2935 63.0864 50.3026 63.1129 50.311 63.1401C50.3193 63.1674 50.3263 63.1953 50.3326 63.2232C50.3361 63.2389 50.3507 63.3451 50.3417 63.2627C50.3486 63.328 50.3521 63.3927 50.35 63.4587C50.3486 63.4914 50.3459 63.5241 50.3431 63.5568C50.3375 63.6228 50.3563 63.5023 50.3403 63.5724C50.3256 63.6364 50.3124 63.7004 50.2914 63.763C50.281 63.7944 50.2691 63.825 50.2572 63.8556C50.2858 63.7835 50.244 63.8815 50.237 63.8944C50.2105 63.9455 50.1805 63.9952 50.1477 64.0428C50.1393 64.0551 50.0723 64.1368 50.1219 64.0796C50.1003 64.1048 50.0786 64.1293 50.0556 64.1531C50.0326 64.177 50.0089 64.2001 49.9837 64.2219C49.9733 64.2314 49.8881 64.2974 49.9502 64.2518C49.8198 64.3478 49.7381 64.5207 49.8379 64.6712C49.9209 64.7971 50.1275 64.8843 50.2677 64.7808C50.7059 64.4574 50.9759 63.9632 50.9787 63.422C50.9815 62.8808 50.6912 62.394 50.2468 62.0802C50.0019 61.9073 49.7123 61.8154 49.4137 61.7861C49.2497 61.7697 49.0927 61.9386 49.0997 62.0924C49.1081 62.2722 49.2379 62.3811 49.4137 62.3988Z" fill="#242424"/>
</g>
<defs>
<filter id="filter0_bf_31_8638" x="-15" y="-20" width="100" height="100" filterUnits="userSpaceOnUse" color-interpolation-filters="sRGB">
<feFlood flood-opacity="0" result="BackgroundImageFix"/>
<feGaussianBlur in="BackgroundImageFix" stdDeviation="2"/>
<feComposite in2="SourceAlpha" operator="in" result="effect1_backgroundBlur_31_8638"/>
<feBlend mode="normal" in="SourceGraphic" in2="effect1_backgroundBlur_31_8638" result="shape"/>
<feGaussianBlur stdDeviation="10" result="effect2_foregroundBlur_31_8638"/>
</filter>
<clipPath id="clip0_31_8638">
<rect width="59" height="77" rx="16" fill="white"/>
</clipPath>
</defs>
</svg>
