<svg width="26" height="34" viewBox="0 0 26 34" fill="none" xmlns="http://www.w3.org/2000/svg">
<g clip-path="url(#clip0_108_17691)">
<path d="M11.6193 2.45784C12.1727 2.12873 12.6566 1.68823 13.0317 1.17178C13.1875 0.956954 13.3308 0.696921 13.2645 0.441951C13.1938 0.170344 12.8928 -0.000721035 12.6059 2.28483e-06C12.319 0.000725604 12.0502 0.139603 11.8225 0.310306C10.8903 1.00976 10.5149 2.33705 10.9473 3.40503L11.6189 2.45784H11.6193Z" fill="black"/>
<path d="M10.8898 3.72186C10.8705 3.29728 10.8509 2.87232 10.8316 2.44774C10.7991 1.7331 10.7413 0.95589 10.2504 0.424973C10.1293 0.294052 9.96865 0.177598 9.78798 0.180853C9.59102 0.184469 9.41961 0.337451 9.35112 0.51792C9.28263 0.698388 9.30003 0.900194 9.34742 1.08681C9.4844 1.62641 9.85055 2.07848 10.2067 2.51211C10.7161 3.13236 11.2259 3.7526 11.7354 4.37249L10.8894 3.7215L10.8898 3.72186Z" fill="black"/>
<path d="M10.5427 21.6555C11.2746 23.139 10.5183 24.952 9.37059 26.1582C8.77491 26.7842 7.76568 27.3281 7.0841 26.7925C6.48249 26.3198 6.6365 25.3777 6.26109 24.7188C5.76277 23.8454 4.48254 23.7336 3.52071 24.0754C1.87025 24.6623 0.725895 26.1976 0.187961 27.8312C0.0372806 28.2887 -0.0737862 28.7835 0.0598642 29.246C0.193515 29.7086 0.644076 30.1144 1.13203 30.0536C1.3997 30.0203 1.63146 29.859 1.83397 29.6847C2.59663 29.0287 3.11198 28.1328 3.87538 27.4771C4.02458 27.3491 4.19192 27.2265 4.38814 27.1961C4.95458 27.109 5.30037 27.7632 5.75019 28.1108C6.20149 28.4594 6.84234 28.5046 7.39398 28.3448C7.94561 28.1846 8.42394 27.845 8.86154 27.4797C10.5727 26.0515 11.8441 24.1264 12.4708 22.0146L10.5427 21.6548V21.6555Z" fill="black"/>
<path d="M20.6523 21.3264C19.0293 22.44 17.7572 24.0349 17.0489 25.8443C16.9068 26.2077 16.785 26.5925 16.8235 26.9799C16.862 27.3672 17.096 27.7589 17.4736 27.8833C17.8446 28.0055 18.2477 27.8511 18.5946 27.6743C19.6524 27.1347 20.5742 26.3672 21.6304 25.8244C22.6863 25.2815 23.9747 24.9792 25.068 25.4457C25.5278 25.6417 25.958 26.0215 25.9972 26.5101C26.0194 26.7882 25.9124 27.0605 25.7825 27.3086C25.1983 28.4258 24.1239 29.2536 22.931 29.718C21.7382 30.1827 20.4306 30.3086 19.147 30.2674C18.12 30.2345 17.0834 30.0938 16.1349 29.7079C15.7891 29.5672 15.444 29.3842 15.2286 29.0851C14.7654 28.4421 15.0686 27.5437 15.5036 26.8822C15.9386 26.2207 16.5121 25.5864 16.5832 24.803C16.6969 23.5546 15.4899 22.5698 14.3008 22.0986L20.652 21.3257L20.6523 21.3264Z" fill="black"/>
<path d="M14.2426 23.5444C20.433 23.5444 25.4514 18.814 25.4514 12.9789C25.4514 7.14368 20.433 2.41333 14.2426 2.41333C8.05207 2.41333 3.03369 7.14368 3.03369 12.9789C3.03369 18.814 8.05207 23.5444 14.2426 23.5444Z" fill="black"/>
<path d="M18.2922 16.0674C19.7186 15.8237 20.6171 14.1859 20.299 12.4092C19.9809 10.6325 18.5667 9.38978 17.1403 9.63347C15.7139 9.87716 14.8155 11.515 15.1335 13.2917C15.4516 15.0683 16.8658 16.3111 18.2922 16.0674Z" fill="white"/>
<path d="M12.5246 17.0923C13.951 16.8486 14.8495 15.2108 14.5314 13.4341C14.2133 11.6574 12.7992 10.4147 11.3728 10.6584C9.94636 10.9021 9.04789 12.5399 9.36597 14.3166C9.68404 16.0933 11.0982 17.336 12.5246 17.0923Z" fill="white"/>
<path d="M13.379 15.8502C13.9058 15.721 14.1897 15.0601 14.0134 14.3741C13.837 13.6882 13.267 13.2368 12.7403 13.3661C12.2136 13.4953 11.9296 14.1562 12.106 14.8422C12.2824 15.5281 12.8523 15.9794 13.379 15.8502Z" fill="black"/>
<path d="M18.9254 14.8302C19.4521 14.7009 19.7361 14.0401 19.5597 13.3541C19.3834 12.6681 18.8134 12.2168 18.2867 12.3461C17.76 12.4753 17.476 13.1362 17.6524 13.8221C17.8288 14.5081 18.3987 14.9594 18.9254 14.8302Z" fill="black"/>
<path d="M4.13596 10.4379C4.19001 10.1894 4.25702 9.94349 4.33662 9.70154C4.37624 9.58074 4.41918 9.46067 4.46546 9.34169C4.48767 9.28454 4.51026 9.22776 4.53358 9.17134C4.54543 9.14313 4.55727 9.11493 4.56912 9.08672C4.55579 9.11818 4.57579 9.07189 4.5769 9.06936C4.58504 9.05055 4.59356 9.03211 4.6017 9.0133C4.81051 8.54784 5.06744 8.10264 5.36695 7.68709C5.40879 7.62887 5.45173 7.57136 5.49542 7.51422C5.51726 7.48565 5.53911 7.45744 5.56132 7.42923C5.54059 7.45527 5.57206 7.41549 5.57354 7.41404C5.58649 7.39813 5.59908 7.38221 5.61204 7.3663C5.70274 7.25491 5.79678 7.14641 5.89378 7.04008C5.9519 6.97643 5.96264 6.87155 5.89378 6.81007C5.83047 6.75329 5.72014 6.74208 5.65832 6.81007C5.30068 7.20138 4.98266 7.62778 4.71314 8.0813C4.44362 8.53482 4.22333 9.01185 4.05192 9.50624C3.95603 9.78327 3.87718 10.0654 3.81461 10.3511C3.79647 10.4343 3.83978 10.5308 3.93086 10.5514C4.01453 10.5702 4.11634 10.5268 4.13596 10.4379Z" fill="white"/>
<path d="M5.25264 24.3998C4.61179 24.3032 3.94021 24.4501 3.41708 24.8305C3.34748 24.8812 3.3049 24.9737 3.35747 25.0533C3.4019 25.1206 3.51075 25.1661 3.58553 25.1115C3.70437 25.0251 3.83136 24.9502 3.96501 24.8884C3.9813 24.8808 3.99722 24.8736 4.01351 24.8667C4.02054 24.8638 4.02758 24.8605 4.03461 24.8576C4.01832 24.8642 4.01906 24.8638 4.0372 24.8566C4.07015 24.8435 4.10347 24.8309 4.13716 24.8189C4.20677 24.7947 4.27785 24.7737 4.34967 24.756C4.42149 24.7383 4.49406 24.7242 4.56736 24.7133C4.57069 24.713 4.62067 24.7068 4.58365 24.7108C4.60401 24.7086 4.62401 24.7061 4.64437 24.7043C4.67991 24.701 4.71545 24.6982 4.75136 24.6967C4.82282 24.6931 4.89427 24.6931 4.96535 24.696C5.00089 24.6974 5.0368 24.7 5.07235 24.7032C5.09271 24.705 5.11307 24.7076 5.13306 24.7097C5.15305 24.7123 5.15342 24.7123 5.13417 24.7097C5.14417 24.7112 5.15454 24.7126 5.16453 24.7141C5.25042 24.7271 5.34779 24.6927 5.36963 24.6005C5.38778 24.5227 5.3452 24.4142 5.25338 24.4001L5.25264 24.3998Z" fill="white"/>
<path d="M24.6281 26.2431C24.6474 26.2452 24.6455 26.2449 24.623 26.242C24.6315 26.2434 24.6404 26.2449 24.6489 26.2463C24.6659 26.2496 24.6833 26.2536 24.7 26.2579C24.7166 26.2622 24.7337 26.2673 24.7499 26.2731C24.7581 26.276 24.7662 26.2789 24.7748 26.2821C24.7551 26.2738 24.754 26.2734 24.7714 26.2807C24.7992 26.2937 24.8262 26.3071 24.8525 26.323C24.8677 26.332 24.8817 26.3422 24.8966 26.3512C24.9114 26.3621 24.911 26.3613 24.8943 26.349C24.9014 26.3545 24.908 26.3599 24.9147 26.3653C24.9414 26.3874 24.9669 26.4116 24.9902 26.4369C24.9991 26.4467 25.0073 26.4564 25.0158 26.4662C24.9887 26.4355 25.0243 26.4781 25.0287 26.485C25.0483 26.5136 25.0643 26.5436 25.0809 26.574C25.0887 26.5906 25.0883 26.5895 25.0802 26.5704C25.0835 26.5783 25.0869 26.5863 25.0898 26.5942C25.095 26.6083 25.0998 26.6225 25.1043 26.6369C25.1087 26.6514 25.1124 26.6662 25.1157 26.681C25.1176 26.6894 25.1254 26.7458 25.1205 26.702C25.1242 26.7367 25.1261 26.7711 25.125 26.8062C25.1242 26.8235 25.1228 26.8409 25.1213 26.8583C25.1183 26.8933 25.1283 26.8293 25.1198 26.8666C25.112 26.9006 25.105 26.9346 25.0939 26.9678C25.0883 26.9845 25.082 27.0007 25.0757 27.017C25.0909 26.9787 25.0687 27.0308 25.065 27.0376C25.0509 27.0648 25.035 27.0912 25.0176 27.1165C25.0132 27.123 24.9776 27.1664 25.0039 27.136C24.9924 27.1494 24.981 27.1624 24.9688 27.1751C24.9565 27.1877 24.9439 27.2 24.9306 27.2116C24.9251 27.2167 24.8799 27.2517 24.9128 27.2275C24.8436 27.2785 24.8003 27.3704 24.8532 27.4503C24.8973 27.5172 25.0069 27.5635 25.0813 27.5085C25.3138 27.3367 25.4571 27.0742 25.4586 26.7866C25.46 26.4991 25.306 26.2405 25.0702 26.0738C24.9402 25.982 24.7866 25.9331 24.6281 25.9176C24.5411 25.9089 24.4578 25.9986 24.4615 26.0803C24.466 26.1758 24.5348 26.2337 24.6281 26.2431Z" fill="white"/>
</g>
<defs>
<clipPath id="clip0_108_17691">
<rect width="26" height="34" fill="white"/>
</clipPath>
</defs>
</svg>
