<svg width="75" height="75" viewBox="0 0 75 75" fill="none" xmlns="http://www.w3.org/2000/svg">
<path d="M68.5452 30.6216C68.3769 30.4515 68.2784 30.2958 68.1393 30.0796C68.0668 29.9701 67.9885 29.8518 67.9014 29.7249C68.1422 29.4482 68.3452 29.1282 68.4989 28.7764L69.1137 27.384L67.5998 27.1678C67.3447 27.1302 66.9327 27.0235 66.4515 26.8967C65.5234 26.6546 64.3316 26.3432 63.0323 26.2076C63.4761 26.0144 63.8531 25.6657 64.1169 25.1929L64.3663 24.7461C64.3663 24.7461 64.2997 24.1203 64.056 23.9243C64.1488 23.7312 64.2214 23.5178 64.2705 23.2843L64.4765 22.2868L63.5078 21.9581C63.3571 21.9062 63.2063 21.8687 63.0584 21.8457C63.0034 21.664 62.9222 21.4709 62.8119 21.2662L62.2378 20.2197L61.2023 20.8222C60.9444 20.9721 60.7268 21.1451 60.5499 21.3383C60.3962 21.3094 60.2308 21.2951 60.0569 21.2951C60.0569 21.2951 59.4653 21.2287 58.8128 21.4651L57.9777 20.6032L56.9887 19.5536C56.0636 18.5706 54.8107 18.2793 53.5348 18.7638C53.0476 18.2793 52.2878 17.8787 51.1075 17.8787C50.7073 17.8787 50.3564 17.9276 50.1504 17.9536C50.1504 17.9536 48.5265 18.2476 47.6129 19.1097L46.5052 18.5849C45.7627 19.7468 44.4926 20.1159 44.4926 20.1159C44.4055 19.7757 44.2577 19.4585 44.0461 19.1673L44.1184 18.7579C44.1184 18.7465 44.3678 17.3597 45.1276 16.1834L46.4501 14.1364L44.5766 14.3469C44.5824 14.1623 44.5737 13.9433 44.5477 13.6837L44.3794 12.0923L42.912 12.7526C42.7495 12.8247 42.6133 12.8968 42.4858 12.9631L42.1957 12.349L41.5229 12.695C41.4562 12.5306 41.3692 12.3433 41.2503 12.1269L40.476 10.7144L39.3769 11.8934C39.2638 12.0145 39.168 12.1269 39.0869 12.2336L38.42 11.5734L37.747 12.2366C37.663 12.1299 37.5702 12.0174 37.4571 11.8963L36.3464 10.7144L35.5692 12.1328C35.4503 12.349 35.3662 12.5334 35.2996 12.6979L34.6297 12.3518L34.3395 12.966C34.2121 12.8996 34.0757 12.8275 33.9133 12.7526L32.4402 12.0953L32.2777 13.6925C32.2516 13.949 32.2428 14.1653 32.2487 14.3498L30.3724 14.1393L31.6977 16.1863C32.4604 17.3597 32.704 18.7465 32.704 18.7579L32.7736 19.1673C32.5619 19.4614 32.411 19.7785 32.327 20.1187C32.327 20.1187 31.1265 19.6084 30.323 18.5849L29.1921 19.1212C27.9015 18.2563 27.1011 17.919 25.7091 17.8787C24.5288 17.847 23.769 18.2793 23.2818 18.7638C22.003 18.2822 20.7529 18.5735 19.8308 19.5565C19.8308 19.5565 19.2247 20.2109 18.8419 20.606C18.4592 21.0038 17.8936 21.3325 17.8936 21.3325C17.8936 21.3325 17.0903 21.1538 16.2637 21.3411C16.0869 21.1479 15.8666 20.9751 15.6055 20.8222L14.5673 20.2197L13.996 21.2719C13.8857 21.4738 13.8075 21.664 13.7554 21.8457C13.6074 21.8687 13.4566 21.9062 13.3058 21.9581L12.3429 22.2926L12.5431 23.2843C12.5923 23.5237 12.662 23.737 12.7577 23.9301C12.7026 24.0369 12.6534 24.1492 12.6128 24.2675L12.4503 24.7489L12.6968 25.1958C12.9578 25.6657 13.3319 26.0175 13.7785 26.2106C12.4763 26.346 11.2874 26.6575 10.3565 26.8995C9.87801 27.0235 9.46616 27.1332 9.21102 27.1707L7.69139 27.3898L8.03647 28.1681L8.31205 28.7879C8.46862 29.1341 8.67455 29.454 8.91227 29.7307C8.82233 29.8577 8.43955 30.4543 8.26844 30.6246L7.5 31.4001L8.23665 32.2073C8.32931 32.3053 9.1559 33.1674 10.4928 33.1703C10.8581 33.1703 11.2206 33.1068 11.5803 32.9799C11.937 33.5334 12.3603 34.0957 12.7462 34.3724C12.0356 35.2028 11.2265 35.9234 10.0752 36.4684L9.11244 36.9239L9.52703 38.0166C9.79685 38.6768 10.3217 39.4004 11.3366 39.6773C11.1192 40.323 11.0149 40.9343 10.922 41.4791C10.7045 42.7737 10.6116 43.3098 9.46616 43.7104L8.43667 44.0681L8.73253 45.1118C8.97026 45.9622 9.32701 46.5245 9.71266 46.8964L9.02826 47.6459C9.02826 47.6459 10.6524 48.8567 12.2444 49.0038C12.2675 49.0067 13.6248 49.0932 14.2338 48.3205C14.4775 49.197 14.8631 50.0042 15.214 50.7366C15.9332 52.2415 16.316 53.1322 15.8346 53.9453L14.7472 55.779L16.8844 55.6896C17.8182 55.652 18.6854 55.5944 19.4364 55.4099C19.4364 55.4502 19.4335 55.4877 19.4307 55.5252L19.2566 57.0993L21.13 56.7073C21.3273 56.6496 21.5128 56.5717 21.681 56.4823C22.8411 57.8317 24.8131 58.8839 27.4694 58.8839H27.6231L24.5694 60.1293L26.7938 61.2797C28.2583 62.0379 29.8852 62.6722 31.7412 63.2113L31.483 64.0964L32.5996 64.4223C33.2434 64.6096 35.572 65.2237 38.4083 65.2237C41.2445 65.2237 43.5704 64.6096 44.2172 64.4223L45.3306 64.0964L45.0725 63.2143C46.9314 62.6751 48.5585 62.0408 50.0229 61.2826L52.2473 60.1324L49.1906 58.8868H49.3442C52.0007 58.8868 53.9698 57.8346 55.1298 56.4851C55.298 56.5747 55.4837 56.6525 55.6808 56.7101L57.5541 57.1021L57.383 55.531C57.3801 55.4934 57.3773 55.4531 57.3773 55.4128C58.1256 55.5972 58.9954 55.652 59.9264 55.6925L62.0636 55.7818L60.9821 53.951C60.4977 53.138 60.8833 52.2471 61.5997 50.7422C61.9507 50.01 62.3363 49.2027 62.58 48.3262C62.9917 48.6376 63.4355 48.8251 63.8763 48.9231C63.8763 48.9231 64.2185 49.0241 64.5462 49.0326C65.4916 49.0614 65.9641 48.7934 66.6139 48.3869L67.7942 47.6487L67.1038 46.8992C67.4897 46.5301 67.8463 45.9679 68.0841 45.1203L68.3829 44.0738L67.3504 43.7163C66.2021 43.3156 66.1121 42.7793 65.8946 41.4849C65.8018 40.94 65.7004 40.3258 65.48 39.683C66.4949 39.4033 67.017 38.6797 67.2866 38.0224L67.6985 36.9267L66.7356 36.4712C65.5842 35.9265 64.7752 35.2056 64.0617 34.3754C64.4504 34.0985 64.8738 33.5363 65.2334 32.9828C65.5901 33.1096 65.9527 33.1703 66.3209 33.1731C67.6578 33.1731 68.4872 32.3111 68.5772 32.213L69.3138 31.4057L68.5452 30.6216Z" fill="white"/>
<path fill-rule="evenodd" clip-rule="evenodd" d="M28.9828 44.8284V36.0351C28.9828 35.2162 28.7449 34.3975 28.4607 33.645H35.3251C35.9544 34.5042 37.097 35.0809 38.4078 35.0809C39.7128 35.0809 40.8555 34.5042 41.4877 33.645H48.352C48.062 34.4004 47.827 35.2162 47.827 36.0351V44.8284H28.9828ZM38.405 56.8449C37.4451 55.8963 36.7606 55.7925 34.1739 55.7925C31.0823 55.7925 28.9828 53.9905 28.9828 51.1105V45.3444H47.8242V51.1105C47.8242 53.9905 45.7275 55.7925 42.6303 55.7925C40.0463 55.7895 39.3619 55.8963 38.405 56.8449Z" fill="#FFDD2D"/>
<path d="M30.0743 57.9326V59.6884L28.5403 60.3025C29.8366 60.8878 31.4461 61.4702 33.3369 61.8996L34.2068 59.083C32.3509 58.7054 31.0575 58.3104 30.0743 57.9326Z" fill="white"/>
<path d="M38.4049 60.3121C36.5925 60.3121 35.0671 60.1246 34.4581 59.9863L33.5387 62.9414C34.9829 63.2931 36.6736 63.5526 38.4049 63.5526C40.1305 63.5526 41.8213 63.296 43.2712 62.9414L42.3491 59.9863C41.7401 60.1276 40.2205 60.3121 38.4049 60.3121Z" fill="white"/>
<path d="M46.7309 57.9326C45.745 58.3104 44.4545 58.7026 42.5984 59.0858L43.4714 61.9027C45.3651 61.473 46.9687 60.8907 48.265 60.3054L46.7337 59.6915V57.9326H46.7309Z" fill="white"/>
<path d="M26.8636 29.6051C29.2648 28.3164 35.1344 25.4796 31.1556 22.4207C30.6134 22.0054 30.0158 21.6307 29.5142 21.1665C28.8936 21.6422 29.7462 22.8243 29.9608 23.2567C29.9608 23.2567 28.6355 23.3894 28.3194 23.3894C26.2721 23.3806 24.1261 22.1756 25.2135 19.8662C24.3986 20.0335 24.3001 20.8119 24.0507 21.4778C23.5286 21.1262 22.621 20.3708 21.922 20.4775C22.4905 22.2851 24.8829 23.914 26.7389 24.2831C24.8627 25.2979 21.3826 26.0533 19.5527 23.8679C18.268 26.3387 20.0573 27.3708 21.8118 28.6653C15.1331 31.6953 16.1191 35.0944 11.7372 37.7698C12.3056 38.0351 14.8402 37.5017 15.0664 37.47C14.1152 38.6953 13.6714 39.2143 13.3931 39.8111C13.1263 40.3703 13.0073 41.0018 12.7435 42.3626C12.5376 43.438 12.1606 44.5104 10.844 45.2226C11.3602 46.1509 12.5057 45.4243 12.9841 45.3004C12.9204 45.3983 12.7579 46.517 12.3288 47.0561C14.5792 46.9119 13.538 42.1953 15.7885 43.3312C16.4236 43.6484 16.615 44.3923 16.3221 45.0005C14.8431 48.0334 18.2043 50.7059 18.0215 53.3643C18.8479 53.3583 19.7034 53.3353 20.2429 52.2253C20.5243 52.779 20.9592 53.5574 21.2028 54.3069L21.8757 53.1681C22.2902 55.0536 24.0592 56.795 26.449 56.9506C25.3093 55.1574 26.6752 52.7098 23.9056 50.1064C24.2507 49.8296 25.0482 49.2963 25.3323 48.9329C21.9336 49.3309 18.3869 46.6582 19.9965 45.3898C21.0491 44.5623 21.5102 46.2805 23.1343 45.9922L22.499 45.4473C22.7224 45.2283 22.9776 44.9429 23.2415 44.7267C22.5513 44.643 21.7973 44.2048 21.7973 44.2048L22.2091 43.5274C18.2274 43.5215 18.1258 40.4943 19.7442 40.3732C20.5038 40.3184 21.487 41.711 23.9375 41.4198C23.6242 41.0449 23.4997 40.477 23.3517 40.059C23.9432 40.0043 24.6394 40.01 25.199 39.7391C24.0013 39.5862 23.6997 39.1854 22.7021 38.4359L23.8592 38.0149C22.1802 37.1817 22.2816 35.7315 22.2294 34.2209C23.1081 34.7225 24.1406 35.5009 25.2426 35.1405C25.5034 35.0541 25.6717 34.933 25.6775 34.662C24.1058 34.0363 23.0966 31.629 26.8636 29.6051ZM23.9956 29.8416C21.8929 32.0758 22.8036 33.4136 23.2271 33.8259C22.4439 33.6587 21.2753 32.667 21.5421 31.7069C21.2927 32.0038 21.0376 32.3267 20.7765 32.6582C20.2544 33.3503 19.7877 34.0278 19.3729 34.6851C18.7348 36.5706 19.9037 38.5166 21.8929 39.3785C19.6832 39.0557 18.6914 37.1011 18.6973 35.8555C17.6416 37.839 17.1371 39.6497 17.1834 41.1689C17.2037 41.734 17.2531 42.2616 17.3285 42.7604C17.8359 43.7175 18.6508 44.0693 20.1037 44.2451C18.7842 44.3288 18.0852 44.2682 17.5111 43.6686C18.41 47.5117 22.615 50.8387 24.3261 53.6871C22.6122 51.4729 19.0656 48.1746 17.8243 45.7905C17.7287 46.6525 17.9606 48.8609 19.0393 50.2188C17.4502 48.6649 17.3254 46.3122 17.4299 44.9342C17.0268 43.9424 16.7715 42.8354 16.7367 41.5754C16.7049 40.4165 16.7861 39.4103 16.9629 38.508C15.9596 39.9264 14.5095 40.4742 13.7962 42.6335C13.9353 39.8486 16.0263 39.8052 17.5922 36.4234C18.1983 34.9445 19.0801 33.6672 20.0544 32.2201C18.8161 32.6236 17.8881 32.912 16.4555 34.4717C17.4734 32.0788 23.3546 29.3889 26.0487 26.7854C25.2395 26.9556 21.9366 27.0392 20.5649 26.1281C23.05 26.797 28.5804 26.0331 30.6685 24.6147C29.2271 26.6759 26.0893 26.7942 22.27 30.8939C22.7572 30.5076 23.4069 30.1183 23.9956 29.8416Z" fill="white"/>
<path d="M64.0648 42.3619C63.8009 41.0011 63.6849 40.3698 63.4182 39.8104C63.1427 39.2135 62.6961 38.6947 61.7419 37.4695C61.9681 37.501 64.5085 38.0346 65.074 37.7693C60.6922 35.0937 61.6782 31.6947 54.9964 28.6646C56.751 27.3702 58.5404 26.3381 57.2556 23.8644C55.4257 26.0525 51.9457 25.2973 50.0693 24.2795C51.9283 23.9104 54.3179 22.2844 54.8863 20.4739C54.1846 20.3673 53.2767 21.1226 52.7549 21.4715C52.5053 20.8055 52.4096 20.0271 51.5948 19.8569C52.6823 22.1692 50.5334 23.3743 48.4831 23.383C48.1699 23.383 46.8474 23.2503 46.8474 23.2503C47.0591 22.8179 47.9117 21.6358 47.2882 21.1601C46.7866 21.6271 46.1949 21.999 45.6497 22.4142C41.668 25.4731 47.5435 28.3128 49.9446 29.5988C53.706 31.6226 52.7055 34.0299 51.1308 34.6469C51.1366 34.918 51.3047 35.0389 51.5686 35.1255C52.6649 35.4887 53.703 34.7104 54.5759 34.2057C54.5268 35.7165 54.6311 37.1696 52.952 37.9999L54.1063 38.4208C53.1085 39.1704 52.8098 39.571 51.6123 39.7239C52.169 39.9948 52.8709 39.9892 53.4595 40.0439C53.3087 40.462 53.1782 41.0299 52.8709 41.4047C55.3243 41.6929 56.3102 40.3034 57.0642 40.3582C58.6766 40.4793 58.5809 43.5065 54.5962 43.5122L55.008 44.1898C55.008 44.1898 54.2541 44.6279 53.561 44.7116C53.8249 44.9249 54.083 45.2132 54.3063 45.4324L53.6713 45.9772C55.2923 46.2656 55.7562 44.5473 56.8091 45.3747C58.4184 46.6432 54.8747 49.3157 51.473 48.9179C51.7601 49.2811 52.5575 49.8174 52.9027 50.0942C50.1304 52.6946 51.4932 55.1452 50.3594 56.9413C52.7432 56.7828 54.5122 55.0414 54.9327 53.1559L55.6054 54.2948C55.8461 53.5452 56.287 52.7667 56.5625 52.2132C57.099 53.3232 57.9602 53.3462 58.7898 53.3519C58.6012 50.6939 61.9593 48.0212 60.4862 44.9883C60.1903 44.3828 60.3817 43.639 61.017 43.319C63.273 42.1832 62.2262 46.8998 64.4796 47.0439C64.0475 46.5047 63.888 45.3861 63.8271 45.2883C64.3027 45.4122 65.4453 46.1387 65.9615 45.2074C64.6536 44.5098 64.2765 43.4372 64.0648 42.3619ZM59.8512 38.5044C60.028 39.4097 60.118 40.413 60.0773 41.572C60.0396 42.8318 59.7873 43.9388 59.3842 44.9307C59.4857 46.3087 59.364 48.6612 57.7746 50.2152C58.8506 48.8544 59.0854 46.6491 58.9898 45.7869C57.7428 48.1712 54.1991 51.4694 52.4822 53.6835C54.196 50.835 58.4011 47.5052 59.3031 43.665C58.723 44.2619 58.0299 44.3251 56.7075 44.2416C58.1576 44.0658 58.9724 43.7141 59.4799 42.757C59.5553 42.2611 59.6047 41.7306 59.625 41.1655C59.6742 39.6461 59.1668 37.8355 58.1111 35.852C58.1199 37.0976 57.1279 39.0522 54.9152 39.375C56.8988 38.5103 58.0705 36.5642 57.4355 34.6814C57.0236 34.0241 56.5597 33.3438 56.0319 32.6548C55.7708 32.3232 55.5156 32.0004 55.2633 31.7034C55.53 32.6633 54.3614 33.6551 53.5783 33.8225C54.0047 33.41 54.9124 32.0724 52.8128 29.8379C53.4015 30.1148 54.0512 30.504 54.5412 30.8846C50.7219 26.785 47.587 26.6695 46.1398 24.6054C48.2308 26.0238 53.7612 26.7906 56.2435 26.1189C54.8747 27.03 51.5686 26.9463 50.7597 26.7762C53.4537 29.3795 59.3408 32.0695 60.3557 34.4624C58.9231 32.9027 57.9922 32.6143 56.7597 32.2107C57.7369 33.6609 58.6127 34.9351 59.2188 36.4142C60.7878 39.796 62.8817 39.8363 63.0179 42.6242C62.3046 40.4705 60.8573 39.9228 59.8512 38.5044Z" fill="white"/>
<path d="M41.4875 33.6426C40.8582 34.5018 39.7128 35.0783 38.4105 35.0783C38.106 35.0783 37.8132 35.0437 37.5348 34.9918C37.6131 35.3463 37.7958 35.7126 38.1758 36.0269C38.022 37.0561 38.4686 38.019 39.5794 38.2697C39.6982 38.7945 40.023 39.1895 40.5741 39.3768L39.7996 40.2648C39.5011 40.605 39.1124 40.7147 38.7992 40.6742L35.3424 40.285C35.4932 39.9046 35.093 39.4634 33.9968 39.6509L35.3541 35.8741L34.5274 34.124L32.9586 35.4559L32.8426 39.4172L32.1668 39.0915C31.2968 38.7167 31.0388 40.2937 31.8682 40.2994L32.2017 40.3022C32.1785 40.4638 32.2308 40.6426 32.3611 40.7002C32.2045 40.7635 32.1582 41.0548 32.3525 41.1586C32.1554 41.2537 32.1262 41.5536 32.2857 41.6833C32.1146 41.9746 32.0828 42.6059 32.6889 42.7645C33.1877 42.8942 33.5008 42.3637 33.6024 42.0552L38.9819 43.7101C39.7388 43.9263 40.284 43.8052 40.9163 43.2545L42.3199 42.035C42.1429 42.8335 42.4301 43.5515 43.042 43.7908C43.042 43.7908 42.9462 44.5231 42.9839 44.8258L44.8661 44.8287H47.8298V36.0354C47.8298 35.2166 48.0648 34.398 48.3548 33.6426H44.8661H41.4875Z" fill="white"/>
<path d="M33.4264 48.438L33.5309 48.5677C33.6758 48.7464 33.7628 48.7031 33.9281 48.608L34.1716 48.4783C34.3254 48.3629 35.3259 48.7434 35.381 47.916C35.4912 48.533 34.7517 49.8332 35.1983 50.5599L35.7987 51.5372L33.8382 51.5659C33.6237 51.5659 33.5105 51.6957 33.4526 51.811L32.9393 52.8691C32.8059 53.1487 32.8145 53.437 32.9827 53.6302L33.3306 54.0194C33.3306 54.0194 33.6149 53.7802 33.7077 53.4659L33.5541 53.3073C33.4264 53.1862 33.4264 53.0708 33.496 52.921L33.8121 52.2694C33.9339 52.0129 34.0587 51.9581 34.337 52.0243L35.9234 52.3647C36.0394 52.3934 36.2279 52.4481 36.3409 52.255C36.5353 51.9119 36.8775 51.8889 37.2254 51.9437C38.0955 52.0734 40.1051 52.281 40.8215 51.4478C41.6625 52.5576 43.3068 52.5576 43.1995 53.1401L42.8516 55.0486H43.3734L43.6925 53.0968C43.7273 52.8691 43.8693 52.5576 43.6228 52.3819C43.5214 52.304 43.4749 52.2637 43.2458 51.8716C42.9472 51.3525 42.9616 50.5742 42.6745 49.9023C42.9472 49.5824 43.2429 49.4728 43.5011 49.5335C44.081 49.6748 44.2377 50.6693 45.0613 51.4796C44.9685 51.119 44.9279 50.7242 44.7336 50.381C44.7336 50.381 45.305 50.8221 45.4527 51.3383C45.5456 51.6612 45.6412 51.8975 45.9343 52.0475C46.1284 52.1167 46.3605 52.0243 46.5925 51.7476C46.5925 51.7476 46.0502 50.9806 45.6529 50.4791C45.1076 49.79 44.3798 49.0981 43.3879 49.1787C43.0747 49.2047 42.7733 49.346 42.4859 49.5162C41.3579 48.8877 40.4822 49.5537 40.1341 49.5537L38.0229 49.4297C37.6083 49.4037 37.2806 48.925 37.2806 48.925C37.2283 47.1492 35.7928 46.4428 35.297 46.4428C35.297 46.4428 35.3433 46.1228 35.2128 46.0103L34.772 46.5611L33.5482 46.117L34.5081 46.8984L33.467 48.1006C33.3598 48.2187 33.3743 48.3745 33.4264 48.438Z" fill="white"/>
<path d="M32.0454 50.9321C31.7495 51.1599 31.7642 51.477 31.9411 51.8316L32.118 52.1604L32.5791 51.8114L32.4747 51.5866C32.3993 51.4279 32.4021 51.2665 32.5327 51.1657L33.1938 50.6699C33.3795 50.5343 33.4374 50.5199 33.6348 50.5487L35.0296 50.8399C35.0296 50.8399 34.8179 50.5343 34.7482 50.2229L33.4345 50.05C33.2489 50.0268 33.1358 50.1048 32.9735 50.2287L32.0454 50.9321Z" fill="white"/>
<path d="M40.9652 55.0481H41.493L42.3399 52.9752C42.3688 52.9031 42.4094 52.8714 42.4413 52.8109C42.0614 52.6611 41.8381 52.5572 41.522 52.3755C41.7337 52.658 41.899 52.7792 41.812 53.0415L40.9652 55.0481Z" fill="white"/>
<path d="M41.4148 27.0116L42.3923 21.4272L38.689 22.6784V28.4358L41.4148 27.0116ZM39.3153 23.2435L41.7717 22.3439C41.7717 22.3439 41.2931 22.7303 40.7219 23.1195C40.2143 23.4683 39.3153 23.8403 39.3153 23.8403V23.2435ZM39.3153 24.5957L41.5629 23.7971C41.5629 23.7971 41.2931 24.0796 40.7247 24.4688C40.2173 24.8147 39.3183 25.1866 39.3183 25.1866V24.5957H39.3153ZM39.3153 26.0314L41.2931 25.276C41.2931 25.276 41.2931 25.5154 40.7219 25.9016C40.2143 26.2505 39.3153 26.6224 39.3153 26.6224V26.0314Z" fill="white"/>
<path d="M34.8237 31.9515L34.9048 32.0812H35.6675L35.6763 32.2138C35.685 32.3407 35.714 32.4704 35.7574 32.6029C35.8763 32.9634 36.1112 33.3411 36.4882 33.6466C36.9261 33.9984 37.5585 34.2522 38.3994 34.2522C40.2236 34.2522 41.0471 33.0786 41.1254 32.2138L41.1312 32.0812H41.8968L41.9781 31.9515C42.6972 30.8327 43.5759 29.5903 44.5966 29.4115L41.8127 27.8057L38.3994 29.6509L34.9831 27.8057L32.202 29.4115C33.2229 29.5873 34.1016 30.8327 34.8237 31.9515Z" fill="white"/>
<path d="M38.1173 28.4358V22.6784L34.4197 21.4272L35.3912 27.0116L38.1173 28.4358ZM37.4937 26.6282C37.4937 26.6282 36.5948 26.2533 36.0872 25.9074C35.5159 25.5211 35.5159 25.2788 35.5159 25.2788L37.4966 26.0343V26.6282H37.4937ZM37.4937 23.2435V23.8403C37.4937 23.8403 36.5948 23.4683 36.0872 23.1195C35.513 22.7303 35.0315 22.3439 35.0315 22.3439L37.4937 23.2435ZM37.4937 24.5957V25.1895C37.4937 25.1895 36.5948 24.8176 36.0872 24.4717C35.513 24.0825 35.2462 23.7999 35.2462 23.7999L37.4937 24.5957Z" fill="white"/>
<path d="M38.4067 18.9668C36.2926 18.9668 34.7064 19.6559 34.3612 20.463L38.4067 22.0516L42.4464 20.463C42.1042 19.6559 40.5208 18.9668 38.4067 18.9668Z" fill="white"/>
<path d="M38.4061 16.6584C39.9634 16.6584 41.5236 17.1282 42.5734 17.7367C42.7445 17.1744 42.9273 16.7736 43.1766 16.3152L42.2197 16.4624L41.4453 14.819L39.9983 15.583L38.4061 14.0176L36.8112 15.583L35.367 14.819L34.5868 16.4624L33.6298 16.3152C33.8791 16.7736 34.059 17.1744 34.2359 17.7367C35.2887 17.1282 36.843 16.6584 38.4061 16.6584Z" fill="white"/>
<path d="M64.7921 29.3173C65.314 29.2509 65.7345 29.0779 66.2478 28.6972C65.1429 28.4062 62.8287 27.573 60.8538 27.9477C60.2012 28.0342 59.8388 28.2966 60.0707 28.4465C61.1321 29.147 62.4429 30.7703 63.3971 32.6644C64.2352 31.6294 63.8843 30.2714 63.7075 29.8822C65.3777 30.8827 65.8156 31.37 66.5899 31.1797C66.1753 30.5483 65.5925 29.9802 64.7921 29.3173Z" fill="white"/>
<path d="M13.4106 32.662C14.3647 30.7678 15.6755 29.1446 16.7398 28.4441C16.9775 28.2941 16.6093 28.0318 15.9626 27.9452C13.9848 27.5733 11.6647 28.4037 10.5598 28.6949C11.0789 29.0754 11.4908 29.2484 12.0186 29.3148C11.2153 29.9808 10.6324 30.5458 10.2177 31.1772C10.9977 31.3675 11.4328 30.8802 13.1003 29.8798C12.9292 30.272 12.5754 31.627 13.4106 32.662Z" fill="white"/>
<path fill-rule="evenodd" clip-rule="evenodd" d="M24.9912 50.2396C25.7597 49.634 26.3978 49.3313 26.3658 47.8638C25.2116 48.4519 21.9374 48.4204 20.5687 46.5464C20.183 46.0131 20.5948 45.7447 20.9689 46.1657C21.9055 47.221 23.6398 46.7424 24.2721 46.4397C24.1705 46.0763 23.8892 45.6035 23.6542 45.4018C23.8922 45.1712 24.5621 44.8251 24.6983 44.2313C24.3416 44.0382 22.9525 43.8997 22.9525 43.8997C23.1758 43.6863 23.4542 43.3894 23.286 42.5967C21.8678 43.029 20.1133 42.4409 19.716 41.9191C19.3246 41.4059 19.7248 40.9244 20.0554 41.2647C20.763 42.0027 24.2489 42.8475 25.5452 41.5645C25.0637 41.4319 24.5331 41.0053 24.4374 40.74C25.638 40.6188 26.595 39.9154 26.6733 39.0389C26.0091 39.0389 24.7562 38.99 24.3272 38.6728C24.9014 38.4623 25.2667 38.2547 25.4494 37.6147C23.2541 37.482 23.0801 35.8619 23.0686 35.5938C24.4983 36.4125 27.0155 36.0491 26.363 34.031C25.1739 33.9677 23.9762 32.0563 27.2445 30.3006C30.217 28.7004 33.5955 26.9764 33.2969 24.1366C33.1026 22.3203 30.0953 21.0805 29.7124 20.1609C28.4568 20.7548 28.2043 21.4438 28.7699 22.5999C28.7699 22.5999 25.9714 22.8767 25.751 21.1641C25.6554 20.3973 26.1715 19.6794 26.7255 19.1287C26.4122 19.1287 24.3039 18.5665 23.6689 20.2733C22.4886 19.4719 21.4764 19.5006 20.6818 20.3483C21.9521 21.0978 22.7378 23.6695 24.8376 24.4278C23.344 25.2321 20.9283 24.8948 19.5189 22.4211C18.1849 24.4191 17.4165 26.3969 20.2787 28.51C15.0731 30.8656 15.1108 35.3688 10.581 37.5137C11.0392 38.7392 12.0078 38.7392 13.2432 38.5488C11.2857 41.0773 12.9533 43.7238 9.85315 44.8049C10.1431 45.8372 10.7261 46.6616 11.8687 46.3589C11.5439 46.8636 11.3293 46.852 10.8247 47.4055C12.5183 48.4664 14.528 47.6996 14.9833 44.2948C15.0645 43.6863 15.9055 44.067 15.6155 44.6636C13.684 48.6337 18.5677 51.6205 16.8393 54.5323C18.3618 54.469 19.5246 54.3507 20.157 53.8404C20.4672 54.4517 20.6558 55.0571 20.586 55.6539C21.4271 55.4837 21.7345 54.9908 21.7924 54.4199C22.3434 56.02 24.3155 57.7296 27.4707 57.7296C25.7975 55.3541 27.3548 52.9468 24.9912 50.2396ZM21.8766 53.1658L21.2039 54.3045C20.9631 53.555 20.5252 52.7766 20.2438 52.2231C19.7016 53.3329 18.8461 53.3561 18.0224 53.3619C18.2052 50.7037 14.844 48.0312 16.3231 44.9981C16.6189 44.3927 16.4245 43.6489 15.7895 43.3289C13.5362 42.193 14.5801 46.9095 12.3297 47.0537C12.759 46.5147 12.9213 45.396 12.9852 45.298C12.5066 45.4219 11.3611 46.1485 10.8449 45.2202C12.1615 44.5081 12.5385 43.4356 12.7445 42.3602C13.0055 40.9994 13.1273 40.3681 13.3912 39.8087C13.6696 39.2119 14.1133 38.6929 15.0645 37.4677C14.8383 37.4993 12.3066 38.0328 11.7353 37.7675C16.1172 35.092 15.1311 31.6929 21.8099 28.6629C20.0582 27.3684 18.2689 26.3364 19.5509 23.8656C21.3807 26.0509 24.8578 25.2956 26.7369 24.2807C24.8811 23.9116 22.4886 22.2858 21.9229 20.4751C22.6219 20.3684 23.5297 21.1238 24.0487 21.4756C24.301 20.8067 24.3996 20.0311 25.2144 19.864C24.1269 22.1732 26.273 23.3782 28.3205 23.387C28.6393 23.387 29.9618 23.2543 29.9618 23.2543C29.7502 22.8219 28.8947 21.6398 29.5152 21.1641C30.017 21.6313 30.6143 22.0032 31.1568 22.4183C35.1384 25.48 29.2658 28.3169 26.8646 29.6056C23.0975 31.6296 24.1067 34.0398 25.6786 34.6539C25.6726 34.9249 25.5046 35.0459 25.2436 35.1325C24.1416 35.4956 23.1092 34.7143 22.2305 34.2129C22.2826 35.7234 22.1783 37.1765 23.8602 38.0068L22.7031 38.4249C23.6979 39.1773 24.0024 39.5752 25.2 39.7309C24.6403 40.0019 23.9473 39.9962 23.3526 40.0509C23.5035 40.4689 23.6253 41.0368 23.9385 41.4117C21.4879 41.7 20.5049 40.3103 19.7451 40.365C18.1269 40.4862 18.2284 43.5134 22.21 43.5192L21.7983 44.1967C21.7983 44.1967 22.5522 44.6349 23.2454 44.7184C22.9815 44.9319 22.7264 45.2202 22.5031 45.4393L23.1381 45.9841C21.5112 46.2725 21.053 44.5542 19.9974 45.3816C18.388 46.6502 21.9346 49.3227 25.3335 48.9248C25.0493 49.2882 24.2489 49.8243 23.9067 50.1012C26.6761 52.7016 25.3102 55.1521 26.4498 56.9483C24.0603 56.7926 22.2914 55.0483 21.8766 53.1658Z" fill="black"/>
<path fill-rule="evenodd" clip-rule="evenodd" d="M17.5027 43.6701C18.0799 44.2668 18.7758 44.3302 20.0953 44.2467C18.6424 44.0708 17.8274 43.7191 17.32 42.7619C17.2475 42.2661 17.1981 41.7356 17.1779 41.1705C17.1315 39.6511 17.636 37.8405 18.6917 35.857C18.686 37.0997 19.6748 39.0543 21.8876 39.38C19.8981 38.5152 18.7294 36.5692 19.3674 34.6865C19.7821 34.0292 20.2491 33.3488 20.771 32.6598C21.0321 32.3282 21.2872 32.0053 21.5366 31.7083C21.2698 32.6684 22.4386 33.6601 23.2216 33.8274C22.7981 33.4151 21.8876 32.0803 23.99 29.8459C23.4043 30.1227 22.7546 30.5119 22.2618 30.8925C26.078 26.7927 29.2188 26.6776 30.6601 24.6133C28.5721 26.0317 23.0418 26.7985 20.5564 26.1267C21.9281 27.0378 25.2313 26.9542 26.0404 26.7842C23.3491 29.3876 17.468 32.0774 16.4471 34.4703C17.8797 32.9078 18.8077 32.6223 20.0489 32.2215C19.0716 33.6717 18.193 34.946 17.5868 36.4249C16.0209 39.8039 13.9271 39.8472 13.7906 42.6321C14.5041 40.4728 15.9541 39.9249 16.9575 38.5066C16.7805 39.4118 16.6965 40.4151 16.7285 41.5742C16.7633 42.834 17.0184 43.941 17.4215 44.9328C17.32 46.3108 17.4418 48.6635 19.031 50.2174C17.9522 48.8595 17.7202 46.651 17.8159 45.7891C19.06 48.1732 22.6068 51.4715 24.3207 53.6857C22.6068 50.8401 18.4046 47.5131 17.5027 43.6701Z" fill="black"/>
<path fill-rule="evenodd" clip-rule="evenodd" d="M56.7653 32.2227C57.9978 32.6263 58.9287 32.9118 60.3613 34.4743C59.3463 32.0814 53.4564 29.3915 50.7652 26.7882C51.5742 26.9554 54.8803 27.0418 56.2491 26.1307C53.7666 26.8026 48.2364 26.0357 46.1455 24.6172C47.5897 26.6815 50.7275 26.7968 54.5467 30.8965C54.0567 30.5159 53.4071 30.1266 52.8184 29.85C54.9179 32.0843 54.0102 33.422 53.584 33.8343C54.3669 33.667 55.5356 32.6753 55.2688 31.7152C55.5212 32.0122 55.7764 32.335 56.0374 32.6666C56.5623 33.3585 57.0263 34.0361 57.4411 34.6933C58.0789 36.5789 56.9073 38.525 54.9238 39.387C57.1366 39.064 58.1283 37.1065 58.1167 35.864C59.1752 37.8475 59.6797 39.658 59.6334 41.1773C59.6131 41.7424 59.5638 42.27 59.4884 42.7688C58.978 43.726 58.1631 44.0777 56.713 44.2536C58.0355 44.3342 58.7286 44.2737 59.3086 43.6769C58.4066 47.5199 54.2045 50.8469 52.4877 53.6954C54.2045 51.4813 57.7455 48.1831 58.9953 45.7988C59.0911 46.6609 58.8591 48.8693 57.7802 50.2271C59.3695 48.6733 59.4913 46.3207 59.3898 44.9427C59.79 43.9508 60.0423 42.8437 60.0828 41.5839C60.1206 40.4248 60.0307 39.4187 59.8567 38.5163C60.863 39.9349 62.3101 40.4826 63.0264 42.6419C62.8901 39.854 60.7964 39.8109 59.2274 36.432C58.6183 34.9443 57.7426 33.67 56.7653 32.2227Z" fill="black"/>
<path fill-rule="evenodd" clip-rule="evenodd" d="M63.5759 38.543C64.8084 38.7361 65.777 38.7361 66.2381 37.5109C61.7082 35.366 61.7459 30.8655 56.5405 28.5071C59.4028 26.3968 58.6314 24.4162 57.3002 22.4182C55.8937 24.8919 53.4693 25.2292 51.9816 24.4249C54.0753 23.6666 54.8672 21.0949 56.1374 20.3453C55.3427 19.4977 54.3278 19.469 53.1474 20.2704C52.5094 18.5636 50.4039 19.1258 50.088 19.1258C50.639 19.6736 51.1609 20.3915 51.0624 21.1612C50.8447 22.8738 48.0463 22.5969 48.0463 22.5969C48.6118 21.4409 48.3596 20.7518 47.1038 20.1579C46.7211 21.0775 43.7166 22.3173 43.5193 24.1336C43.2179 26.9735 46.6021 28.6974 49.5718 30.2976C52.84 32.0534 51.6423 33.9677 50.4563 34.0281C49.7978 36.0462 52.3151 36.4096 53.7478 35.5908C53.742 35.8589 53.5592 37.4791 51.364 37.6118C51.5495 38.2518 51.9121 38.4595 52.4862 38.6699C52.0571 38.9899 50.8042 39.0359 50.1431 39.0359C50.2214 39.9125 51.1812 40.6188 52.3818 40.737C52.2861 41.0023 51.7525 41.429 51.274 41.5615C52.5703 42.8445 56.056 41.9997 56.7639 41.2617C57.0886 40.9215 57.4857 41.403 57.0973 41.9162C56.697 42.4409 54.9455 43.0289 53.5243 42.5938C53.362 43.3836 53.6346 43.6834 53.858 43.8968C53.858 43.8968 52.4688 44.0352 52.1093 44.2284C52.2455 44.8222 52.9182 45.1654 53.1532 45.3988C52.9154 45.6005 52.634 46.0734 52.5326 46.4368C53.1707 46.7424 54.9049 47.2181 55.8358 46.1628C56.2129 45.7449 56.6245 46.0101 56.2388 46.5434C54.87 48.4174 51.5959 48.4461 50.4388 47.861C50.4069 49.3284 51.0449 49.631 51.8134 50.2365C49.4471 52.9436 51.0101 55.3511 49.3368 57.7208C52.4892 57.7208 54.4611 56.0112 55.0121 54.4111C55.076 54.9792 55.3776 55.4751 56.2157 55.6451C56.1518 55.0482 56.3374 54.4428 56.6448 53.8318C57.2829 54.3421 58.4458 54.4602 59.9683 54.5237C58.2427 51.6118 63.1264 48.6249 61.1892 44.655C60.9021 44.0581 61.743 43.6777 61.8242 44.2859C62.2767 47.691 64.2892 48.4577 65.9858 47.3968C65.4754 46.8432 65.2636 46.8547 64.9389 46.3503C66.0815 46.653 66.6615 45.8283 66.9543 44.7963C63.8688 43.718 65.5364 41.0714 63.5759 38.543ZM63.8369 45.3008C63.8977 45.3988 64.0573 46.5174 64.4895 47.0566C62.2361 46.9125 63.28 42.1957 61.0269 43.3317C60.3916 43.6489 60.2032 44.3927 60.4961 45.001C61.9692 48.0339 58.6111 50.7064 58.7996 53.3646C57.9701 53.3589 57.1089 53.3358 56.5723 52.2259C56.2969 52.7794 55.8532 53.5577 55.6125 54.3075L54.9397 53.1686C54.5221 55.0541 52.7531 56.7954 50.3692 56.954C51.5031 55.1608 50.14 52.7101 52.9125 50.1068C52.5645 49.8301 51.7671 49.2938 51.48 48.9306C54.8817 49.3284 58.4254 46.6558 56.8159 45.3873C55.7632 44.56 55.2993 46.2781 53.6781 45.9898L54.3133 45.4451C54.09 45.2258 53.8318 44.9404 53.568 44.7242C54.2611 44.6406 55.0151 44.2024 55.0151 44.2024L54.6033 43.5249C58.5849 43.5192 58.6807 40.492 57.0712 40.3708C56.3142 40.3161 55.3282 41.7084 52.8777 41.4174C53.1881 41.0426 53.3155 40.4747 53.4664 40.0566C52.8748 40.0019 52.1759 40.0075 51.6191 39.7366C52.8169 39.5837 53.1185 39.1831 54.1131 38.4333L52.9591 38.0126C54.638 37.1794 54.5307 35.7292 54.5829 34.2184C53.7071 34.7201 52.6689 35.4986 51.5757 35.1381C51.3146 35.0516 51.1435 34.9306 51.1378 34.6596C52.7125 34.0425 53.7158 31.6352 49.9517 29.6114C47.5532 28.3227 41.6779 25.4858 45.6568 22.4269C46.2018 22.0117 46.7935 21.6369 47.2923 21.1728C47.9159 21.6485 47.0633 22.8305 46.8516 23.263C46.8516 23.263 48.1738 23.3955 48.4872 23.3955C50.5374 23.387 52.6863 22.1819 51.5989 19.8696C52.4138 20.0369 52.5094 20.8182 52.7588 21.4841C53.2808 21.1325 54.1856 20.3799 54.8904 20.4866C54.319 22.2942 51.9324 23.9231 50.0734 24.2922C51.9498 25.3069 55.4297 26.0624 57.2597 23.8771C58.5415 26.3477 56.7551 27.38 55.0006 28.6744C61.6821 31.7016 60.6932 35.1035 65.078 37.7789C64.5126 38.0442 61.9721 37.5109 61.7459 37.4791C62.703 38.7045 63.1495 39.2234 63.4221 39.8203C63.6889 40.3794 63.805 41.008 64.0688 42.3716C64.2776 43.4471 64.6575 44.5194 65.9683 45.2317C65.455 46.1514 64.3124 45.4248 63.8369 45.3008Z" fill="black"/>
<path fill-rule="evenodd" clip-rule="evenodd" d="M32.0208 52.7439L32.9749 51.9394L32.83 51.6512C32.7255 51.4436 32.7806 51.432 32.8908 51.3514L33.3954 50.9795C33.5114 50.8842 33.6332 50.8958 33.7753 50.9304L35.2863 51.2821H33.6912C33.3229 51.3052 33.2156 51.4465 33.0822 51.7175L32.9721 51.9394L32.5632 52.7756C32.4239 53.0639 32.3513 53.4473 32.7168 53.8798L33.0068 54.2228L32.4211 55.402H32.914L33.32 54.5831C33.352 54.5544 33.9522 54.0095 34.0798 53.4473C33.9058 53.306 33.7841 53.208 33.8798 53.012L34.0624 52.62C34.1234 52.4901 34.1437 52.4382 34.3176 52.47L35.901 52.8101C36.0982 52.8648 36.3883 52.9514 36.5999 52.6343C36.8174 52.3057 36.8465 52.3403 37.351 52.3891L38.1602 52.4757C39.265 52.5795 40.37 52.3057 40.7991 51.9655C40.9499 52.3057 41.2487 52.5681 41.3878 52.8333C41.44 52.9313 41.3532 53.0697 41.2864 53.2427L40.3786 55.3992H41.7794L42.5712 53.4329C42.6435 53.2455 42.7508 53.0955 42.832 53.0206L42.3768 55.402H43.7368L44.0965 53.0466C44.1748 52.5219 44.1283 52.3547 43.8761 52.1384C43.3105 51.6627 43.3222 50.6652 43.1394 50.0598C43.2351 50.005 43.3483 49.9762 43.4816 49.9934C43.7775 50.0194 44.0009 50.7719 44.3488 51.2561C45.0448 52.2278 45.993 53.3003 47.0806 51.7896C46.9761 51.6166 46.8631 51.4609 46.7297 51.3111L46.4251 50.9564C46.2483 50.7603 45.4074 49.8031 45.0564 49.46C44.2588 48.6615 43.0351 48.7827 42.5479 49.1718C41.4429 48.5952 40.2772 49.2006 40.0018 49.1775L38.0994 49.0621C38.0123 49.0564 37.8817 49.0276 37.7889 48.8805L38.1428 48.7653C37.8121 47.3958 36.9799 46.2514 35.5268 46.0523C35.5268 46.0523 35.4428 45.6199 35.2195 45.5363L34.7845 46.0437C34.6628 46.0611 34.5293 46.0985 34.4191 46.1446L32.5632 45.4585L33.9552 46.8568C33.9552 46.8568 33.2331 47.8744 33.0272 48.082C32.8908 48.2723 32.9023 48.4193 33.0561 48.6008L33.3259 48.9527C33.465 49.1344 33.6187 49.1286 33.8421 49.0161L34.1465 48.8576C34.2799 48.748 34.7265 48.9642 34.9179 48.7912C34.7962 49.1891 34.7353 49.5725 34.7062 49.8752L33.4564 49.7253C33.1837 49.6878 33.059 49.7253 32.8938 49.855L31.8265 50.6709C31.4786 50.9361 31.3713 51.3946 31.5858 51.8415L32.0208 52.7439ZM42.3449 52.9774L41.4981 55.0532H40.9702L41.8171 53.0436C41.9039 52.7842 41.7388 52.6631 41.5271 52.3806C41.8403 52.5565 42.0665 52.6717 42.4464 52.816C42.4144 52.8736 42.3738 52.9054 42.3449 52.9774ZM34.1783 48.4827L33.9377 48.6096C33.7695 48.7048 33.6855 48.748 33.5404 48.5693L33.436 48.4366C33.3839 48.3732 33.3665 48.2204 33.4737 48.0992L34.5119 46.8971L33.555 46.1158L34.773 46.5626L35.2195 46.0092C35.35 46.1186 35.3037 46.4386 35.3037 46.4386C35.7967 46.4386 37.2321 47.1478 37.2873 48.9239C37.2873 48.9239 37.612 49.3995 38.0268 49.4255L40.1409 49.5524C40.4917 49.5524 41.3676 48.8893 42.4927 49.5149C42.7769 49.3447 43.0814 49.2093 43.3947 49.1747C44.3865 49.1027 45.1173 49.7888 45.6596 50.4807C46.0569 50.9823 46.6021 51.7492 46.6021 51.7492C46.3672 52.026 46.138 52.1182 45.9438 52.049C45.6508 51.8991 45.5551 51.6656 45.4624 51.3398C45.3145 50.8238 44.7432 50.3826 44.7432 50.3826C44.9375 50.7286 44.9781 51.1208 45.0709 51.4811C44.2444 50.668 44.0877 49.6763 43.5107 49.5378C43.2556 49.4746 42.9568 49.5841 42.6812 49.9012C42.9713 50.5729 42.9568 51.3514 43.2556 51.8731C43.4816 52.2624 43.531 52.2969 43.6324 52.3834C43.8761 52.5565 43.7398 52.8707 43.7021 53.0985L43.3889 55.0503H42.8611L43.209 53.1417C43.3164 52.5594 41.672 52.5594 40.8311 51.4493C40.1147 52.2825 38.1051 52.075 37.2351 51.9452C36.8842 51.8933 36.542 51.9165 36.3506 52.2594C36.2375 52.4526 36.0489 52.395 35.9329 52.3662L34.3465 52.026C34.0682 51.9625 33.9464 52.0172 33.8247 52.271L33.5084 52.9226C33.4389 53.0754 33.4418 53.1879 33.5694 53.3119L33.7202 53.4705C33.6304 53.7817 33.3433 54.0211 33.3433 54.0211L32.998 53.6348C32.83 53.4387 32.8212 53.1561 32.9546 52.8794L33.4679 51.8127C33.5288 51.6944 33.639 51.5676 33.8536 51.5676L35.814 51.5387L35.2138 50.5673C34.767 49.8377 35.5095 48.5376 35.3963 47.9235C35.3355 48.7452 34.3351 48.3702 34.1783 48.4827ZM32.0498 50.9333L32.9778 50.2298C33.1432 50.1059 33.2533 50.0251 33.4419 50.0482L34.7526 50.2212C34.8251 50.5326 35.0339 50.8382 35.0339 50.8382L33.639 50.5469C33.4418 50.5239 33.3839 50.5326 33.1982 50.6652L32.5369 51.1611C32.4064 51.262 32.4007 51.4234 32.4761 51.582L32.5835 51.8097L32.1223 52.1556L31.9454 51.8271C31.7657 51.4783 31.754 51.1582 32.0498 50.9333Z" fill="black"/>
<path fill-rule="evenodd" clip-rule="evenodd" d="M36.0829 25.9048C36.5903 26.2538 37.4895 26.6257 37.4895 26.6257V26.0316L35.5085 25.2793C35.5085 25.2793 35.5085 25.5213 36.0829 25.9048Z" fill="black"/>
<path fill-rule="evenodd" clip-rule="evenodd" d="M37.4896 25.1903V24.5965L35.2422 23.7979C35.2422 23.7979 35.5089 24.0805 36.0833 24.4697C36.5907 24.8156 37.4896 25.1903 37.4896 25.1903Z" fill="black"/>
<path fill-rule="evenodd" clip-rule="evenodd" d="M37.4918 23.8428V23.2462L35.0295 22.3467C35.0295 22.3467 35.5111 22.733 36.0853 23.1223C36.5926 23.4709 37.4918 23.8428 37.4918 23.8428Z" fill="black"/>
<path fill-rule="evenodd" clip-rule="evenodd" d="M44.4093 31.9524H46.9265C46.8221 31.5893 46.4306 31.2231 45.6968 31.2231C45.0009 31.2231 44.5833 31.6211 44.4093 31.9524Z" fill="black"/>
<path fill-rule="evenodd" clip-rule="evenodd" d="M41.7738 22.3467L39.3173 23.2462V23.8428C39.3173 23.8428 40.2164 23.4709 40.7239 23.1223C41.2951 22.733 41.7738 22.3467 41.7738 22.3467Z" fill="black"/>
<path fill-rule="evenodd" clip-rule="evenodd" d="M41.2953 25.2793L39.3175 26.0345V26.6285C39.3175 26.6285 40.2166 26.2538 40.7241 25.9077C41.2953 25.5213 41.2953 25.2793 41.2953 25.2793Z" fill="black"/>
<path fill-rule="evenodd" clip-rule="evenodd" d="M41.5626 23.7979L39.3152 24.5965V25.1903C39.3152 25.1903 40.2171 24.8184 40.7217 24.4725C41.2959 24.0805 41.5626 23.7979 41.5626 23.7979Z" fill="black"/>
<path fill-rule="evenodd" clip-rule="evenodd" d="M31.1086 31.2231C30.375 31.2231 29.9834 31.5893 29.8792 31.9524H32.3992C32.2194 31.6211 31.8075 31.2231 31.1086 31.2231Z" fill="black"/>
<path fill-rule="evenodd" clip-rule="evenodd" d="M43.4032 20.7411C43.4032 19.3342 41.0252 18.0742 38.4006 18.0742C35.7761 18.0742 33.3981 19.3342 33.3981 20.7411L33.4532 21.0871L34.4973 27.0636L29.5382 29.9379C29.0103 30.2464 28.3492 31.094 28.2651 31.9475H29.17C29.3207 31.094 29.9964 30.1485 31.2637 30.2061C32.4092 30.2667 33.0878 30.9586 33.7606 31.9475L33.9346 32.2069L34.184 32.5961H26.8905C27.427 33.6658 27.9345 34.8016 27.9345 36.0326V51.1081C27.9345 54.9857 30.9302 56.8337 34.1753 56.8337C36.6809 56.8337 37.0202 56.7213 38.4036 58.0965C39.7811 56.7213 40.1202 56.8337 42.6317 56.8337C45.874 56.8337 48.8726 54.9857 48.8726 51.1081V36.0356C48.8726 34.8045 49.3801 33.6686 49.9165 32.5989H42.6173L42.8696 32.2097L43.0435 31.9504C43.7134 30.9615 44.3949 30.2695 45.5405 30.2089C46.802 30.1513 47.4834 31.0968 47.6313 31.9504H48.5333C48.4521 31.0968 47.7879 30.2464 47.2631 29.9408L42.304 27.0665L43.351 21.09L43.4032 20.7411ZM34.413 21.4273L38.1136 22.6786V28.4359L35.3876 27.0117L34.413 21.4273ZM35.3237 33.6426C35.8109 34.3057 36.5997 34.796 37.5335 34.9861C37.6119 35.3349 37.8033 35.7184 38.1744 36.0269C38.0207 37.0561 38.4644 38.0162 39.578 38.2699C39.694 38.7947 40.0217 39.1896 40.5699 39.3769L39.7955 40.2651C39.4997 40.6052 39.114 40.7146 38.7951 40.6743L35.3382 40.2852C35.489 39.9045 35.0888 39.4634 33.9954 39.6509L35.3556 35.8742L34.5262 34.1241L32.9544 35.4561L32.8384 39.4174L32.1715 39.0915C31.2926 38.7168 31.0375 40.2938 31.8728 40.2996L32.2033 40.3024C32.1829 40.4639 32.2323 40.6427 32.36 40.6974C32.2033 40.7637 32.1569 41.0577 32.354 41.1615C32.154 41.254 32.1279 41.5537 32.2874 41.6834C32.1135 41.9746 32.0873 42.606 32.6934 42.7645C33.1893 42.8942 33.4996 42.3638 33.6012 42.0553L38.9777 43.7102C39.7403 43.9265 40.2799 43.8053 40.9121 43.2547L42.3157 42.0351C42.1387 42.8338 42.4288 43.5515 43.0407 43.7909C43.0407 43.7909 42.9536 44.5088 42.9798 44.8288H28.9814V36.0356C28.9814 35.2167 28.7435 34.398 28.4595 33.6426H35.3237ZM41.1064 36.9784C40.8106 37.5405 40.8395 38.1862 41.1875 38.7715L40.9555 38.9965C39.9463 38.8725 39.549 37.3761 39.549 37.3761C39.5287 37.5117 39.5172 37.6413 39.5201 37.7741C38.9314 37.5579 38.56 37.0388 38.5892 36.3268C38.8125 36.4507 39.0619 36.5372 39.3287 36.5834L39.3981 36.1452C38.6935 36.024 38.2817 35.5858 38.1253 35.0669C38.0904 35.064 38.0614 35.0553 38.0294 35.0524C38.1542 35.0611 38.2789 35.0726 38.4064 35.0726C38.824 35.0726 39.2213 35.0092 39.5926 34.8995C39.8855 35.3148 40.4045 35.6118 40.9266 35.6695C40.8425 36.0153 40.883 36.445 41.1064 36.9784ZM42.5999 40.9337C42.4983 41.0693 42.4172 41.225 42.365 41.3952L41.8024 41.9084C41.9156 41.0895 41.3616 40.1238 40.857 39.7287L41.4543 39.1463L41.5732 39.2674C41.3731 39.7892 41.7647 40.8128 42.5999 40.9337ZM39.8825 40.6773L40.3465 40.2245C40.8164 40.634 41.437 41.5478 41.2426 42.4185L40.7381 42.8798C40.6336 42.9808 40.5264 43.0529 40.4161 43.1192C40.7323 42.3436 40.3291 41.1502 39.8825 40.6773ZM38.8849 41.0608H38.8994C39.0676 41.0866 39.2475 41.0577 39.4098 40.9915C39.7636 41.4931 40.0391 42.6349 39.6158 43.347C39.3751 43.3527 39.1402 43.3095 38.9197 43.246L38.7458 43.1941C39.1025 42.6435 39.0531 41.669 38.8849 41.0608ZM37.7162 40.9164L38.3687 40.9972C38.4732 41.5365 38.4036 42.4676 38.0584 42.998L37.2986 42.779C37.6322 42.3291 37.7888 41.4037 37.7162 40.9164ZM36.3562 40.7521L37.1478 40.8443C37.2261 41.2769 37.0781 42.1966 36.7796 42.6349L35.9732 42.4042C36.2952 41.9804 36.4112 41.2336 36.3562 40.7521ZM33.1516 40.5417C32.7833 40.6599 32.6209 40.3947 32.6354 40.1698C33.3575 39.9073 33.6795 40.0776 33.8912 40.2102C34.0854 40.3312 34.2479 40.6773 34.5088 40.8934C34.4653 41.1875 34.3753 41.6143 34.2681 41.8997C33.5286 41.7122 33.4909 41.0636 33.7664 40.6685C33.6126 40.4898 33.4503 40.4437 33.1516 40.5417ZM32.6354 41.9746C32.6354 41.9746 32.8559 42.0669 33.1342 42.087C33.1024 42.2398 32.9833 42.3839 32.7949 42.3436C32.6383 42.309 32.5687 42.1187 32.6354 41.9746ZM31.9075 39.87C31.7247 39.7489 31.8059 39.4838 32.009 39.4838C32.2323 39.4894 32.5281 39.7403 32.821 39.8642C32.821 39.8642 32.0524 39.968 31.9075 39.87ZM32.6586 41.3981C32.8182 41.5507 33.2966 41.4931 33.2966 41.4931L33.3141 41.5882C33.1053 41.865 32.5251 41.741 32.6586 41.3981ZM33.3024 41.0837C32.9603 41.2193 32.6094 41.0347 32.7166 40.8156C32.8761 40.9598 33.3198 40.8877 33.3198 40.8877L33.3024 41.0837ZM33.807 37.1253L33.1516 39.4981L33.3749 35.6695L34.3899 34.8073L34.9061 35.9346L33.6012 39.6538L33.9463 37.1513C33.9781 36.9726 33.836 36.9523 33.807 37.1253ZM33.8535 40.0026C33.8535 40.0026 34.5841 39.968 34.7901 40.0458C34.9409 40.1093 34.8395 40.3629 34.6422 40.3342C34.4363 40.3082 33.8535 40.0026 33.8535 40.0026ZM34.9989 40.5792L35.7936 40.6773C35.8544 41.1096 35.7413 41.842 35.4571 42.2514L34.6886 42.0293C34.8917 41.5478 34.9409 41.0953 34.9989 40.5792ZM47.8256 51.1109C47.8256 52.9445 46.9731 54.337 45.555 55.1098L46.0626 54.0834H45.5695L44.9169 55.398C44.2413 55.6517 43.4757 55.7929 42.6289 55.7929C40.0421 55.7929 39.3576 55.8967 38.4006 56.8453C37.4408 55.8967 36.7564 55.7929 34.1724 55.7929C33.3315 55.7929 32.5657 55.6575 31.893 55.4036H31.9105L32.5629 54.0834H32.0728L31.5014 55.2394C31.3652 55.176 31.2318 55.1069 31.1043 55.0317L31.574 54.0834H31.0869L30.7387 54.7897C29.631 53.9796 28.9785 52.711 28.9785 51.1109V45.3449H47.8199V51.1109H47.8256ZM48.3506 33.6426C48.0578 34.398 47.8228 35.2167 47.8228 36.0356V44.8288H46.7932C46.3265 44.379 45.932 42.8798 45.932 42.8798C45.6767 43.419 45.9697 44.5117 46.2422 44.8288H44.9169C44.5892 44.3878 44.3051 42.8251 44.3051 42.8251C43.9077 43.2749 44.1602 44.4885 44.4066 44.8288H43.5249C43.4698 44.2031 43.6497 43.5228 43.6497 43.5228C43.1887 43.4392 42.6985 43.197 42.7013 42.6896C42.9333 42.9058 43.029 42.903 43.351 42.8971L43.725 42.6032C42.4839 42.6435 42.4259 41.2885 43.4118 40.6542C42.4288 40.6858 41.6951 40.1036 42.0518 39.0656C41.3528 38.7053 41.1064 37.5289 41.6225 37.0129C41.2485 36.6093 41.1875 35.8164 41.4254 35.2773C40.9294 35.2773 40.3727 35.0813 40.0623 34.7441C40.0391 34.7554 40.0102 34.7642 39.984 34.7728C40.6047 34.5219 41.1294 34.1299 41.4833 33.6456H48.3506V33.6426ZM44.598 29.4103C43.5771 29.5862 42.6985 30.8287 41.9792 31.9504L41.8981 32.08H41.1294L41.1266 32.2127C41.0483 33.0776 40.2219 34.251 38.4006 34.251C37.5596 34.251 36.9245 33.9943 36.4896 33.6456C36.1126 33.3399 35.8747 32.9623 35.7587 32.602C35.7153 32.4721 35.6891 32.3395 35.6776 32.2127L35.6719 32.08H34.9089L34.8278 31.9504C34.1057 30.8318 33.227 29.5891 32.2092 29.4103L34.9903 27.8045L38.4064 29.6497L41.8169 27.8045L44.598 29.4103ZM41.4137 27.0117L38.6906 28.4359V22.6786L42.3911 21.4273L41.4137 27.0117ZM38.4036 22.05L34.3581 20.4614C34.7002 19.6542 36.2865 18.9652 38.4036 18.9652C40.5176 18.9652 42.1009 19.6542 42.4432 20.4614L38.4036 22.05Z" fill="black"/>
<path fill-rule="evenodd" clip-rule="evenodd" d="M47.3945 39.325L47.4033 38.8839C46.0431 38.8521 45.73 37.2578 45.73 37.2578C45.3327 38.4311 46.3709 39.3077 47.3945 39.325Z" fill="black"/>
<path fill-rule="evenodd" clip-rule="evenodd" d="M45.6793 42.0279L45.543 41.6099C44.3831 41.9039 43.7828 40.0762 43.7828 40.0762C43.4116 41.4052 44.7049 42.3451 45.6793 42.0279Z" fill="black"/>
<path fill-rule="evenodd" clip-rule="evenodd" d="M46.487 40.33C45.1009 40.5493 44.5325 38.9463 44.5325 38.9463C44.3786 39.8199 44.9471 40.705 45.8665 40.7972C45.6577 41.936 46.722 42.5212 47.6442 42.1146L47.5107 41.7169C46.7103 41.985 45.9593 41.1979 46.487 40.33Z" fill="black"/>
<path fill-rule="evenodd" clip-rule="evenodd" d="M45.6525 35.7567L45.664 35.3155C43.8341 34.9408 43.9879 33.6895 43.9879 33.6895C43.5936 34.8687 44.6317 35.7393 45.6525 35.7567Z" fill="black"/>
<path fill-rule="evenodd" clip-rule="evenodd" d="M34.0626 54.084L33.4076 55.4036H33.9004L34.5525 54.084H34.0626Z" fill="black"/>
<path fill-rule="evenodd" clip-rule="evenodd" d="M35.0509 54.0835L34.3986 55.4032H34.8944L35.5407 54.0835H35.0509Z" fill="black"/>
<path fill-rule="evenodd" clip-rule="evenodd" d="M39.0116 54.084L38.3594 55.4036H38.8491L39.5043 54.084H39.0116Z" fill="black"/>
<path fill-rule="evenodd" clip-rule="evenodd" d="M40.0036 54.0835L39.3456 55.4032H39.8413L40.4905 54.0835H40.0036Z" fill="black"/>
<path fill-rule="evenodd" clip-rule="evenodd" d="M38.0237 54.0835L37.3687 55.4032H37.8615L38.5137 54.0835H38.0237Z" fill="black"/>
<path fill-rule="evenodd" clip-rule="evenodd" d="M43.8112 55.4032H44.3039L44.9561 54.0835H44.4632L43.8112 55.4032Z" fill="black"/>
<path fill-rule="evenodd" clip-rule="evenodd" d="M36.0416 54.084L35.3893 55.4036H35.882L36.5343 54.084H36.0416Z" fill="black"/>
<path fill-rule="evenodd" clip-rule="evenodd" d="M37.0277 54.0835L36.3755 55.4032H36.8712L37.5234 54.0835H37.0277Z" fill="black"/>
<path fill-rule="evenodd" clip-rule="evenodd" d="M34.7888 46.9834C34.6989 46.9834 34.6206 47.0699 34.6206 47.1824C34.6206 47.2918 34.6989 47.3811 34.7888 47.3811C34.8815 47.3811 34.9626 47.2918 34.9626 47.1824C34.9598 47.0699 34.8815 46.9834 34.7888 46.9834Z" fill="black"/>
<path fill-rule="evenodd" clip-rule="evenodd" d="M38.4034 17.1831C40.4334 17.1831 42.0603 17.852 42.9564 18.5699C42.9564 18.5699 43.2261 16.9669 44.1338 15.5601L42.4982 15.7417L41.6426 13.9312L39.9984 14.7817L38.4034 13.2075L36.8084 14.7817L35.1582 13.9312L34.3028 15.7417L32.6671 15.5601C33.5777 16.9669 33.8446 18.5699 33.8446 18.5699C34.7437 17.852 36.3734 17.1831 38.4034 17.1831ZM34.584 16.4625L35.3642 14.8191L36.8084 15.5831L38.4034 14.0177L39.9984 15.5831L41.4426 14.8191L42.214 16.4625L43.1739 16.3153C42.9274 16.7737 42.7418 17.1745 42.5707 17.7368C41.5209 17.1283 39.9607 16.6585 38.4034 16.6585C36.8403 16.6585 35.283 17.1283 34.2333 17.7368C34.0592 17.1745 33.8764 16.7737 33.6271 16.3153L34.584 16.4625Z" fill="black"/>
<path fill-rule="evenodd" clip-rule="evenodd" d="M40.0754 13.9454C40.313 13.9655 40.5246 13.7869 40.5448 13.5533C40.5681 13.3171 40.2203 12.689 40.2203 12.689C40.2203 12.689 39.7014 13.2451 39.684 13.4813C39.6608 13.7119 39.8405 13.9222 40.0754 13.9454Z" fill="black"/>
<path fill-rule="evenodd" clip-rule="evenodd" d="M42.7596 14.9138C42.9713 15.0261 43.2291 14.9426 43.3422 14.7323C43.4582 14.5247 43.3828 13.813 43.3828 13.813C43.3828 13.813 42.6929 14.1213 42.5799 14.3316C42.4696 14.5392 42.551 14.7984 42.7596 14.9138Z" fill="black"/>
<path fill-rule="evenodd" clip-rule="evenodd" d="M36.7303 13.9454C36.9709 13.9222 37.1478 13.7149 37.1274 13.4813C37.1043 13.2451 36.5913 12.689 36.5913 12.689C36.5913 12.689 36.2463 13.32 36.2666 13.5533C36.284 13.7869 36.4956 13.9655 36.7303 13.9454Z" fill="black"/>
<path fill-rule="evenodd" clip-rule="evenodd" d="M34.0581 14.9138C34.2697 14.7984 34.3479 14.5392 34.2377 14.3316C34.1276 14.1213 33.4348 13.813 33.4348 13.813C33.4348 13.813 33.3624 14.5247 33.4783 14.7323C33.5856 14.9426 33.8465 15.0261 34.0581 14.9138Z" fill="black"/>
<path fill-rule="evenodd" clip-rule="evenodd" d="M66.2018 29.5589C66.7731 29.357 67.2138 28.8151 67.4342 28.3134C65.9813 28.1059 62.1214 26.4942 58.9488 27.8061C60.1379 26.6845 61.205 26.5404 61.3065 24.9259C61.7994 25.2777 62.6318 25.4765 63.1017 24.6374C62.774 23.6775 61.9475 24.4558 61.8314 24.1907C61.6689 23.8216 62.8725 24.3032 63.1306 23.0547C62.1939 22.7347 61.9155 23.4959 61.7473 23.32C61.5935 23.1528 62.3419 22.8327 61.7909 21.8267C60.8164 22.3946 61.3239 23.0318 61.118 23.1038C60.8685 23.2018 61.0658 22.4205 59.987 22.458C59.8797 23.6082 60.9991 23.6457 60.8164 23.8275C60.5931 24.0494 60.3031 23.1672 59.4882 23.6141C59.5027 24.5424 60.2596 25.0527 61.0396 24.8337C60.9122 26.5979 59.2823 26.2694 58.0701 28.2587C60.6395 29.5676 61.8023 31.8508 63.383 33.4307C63.9049 33.0618 64.7981 31.4242 64.7981 31.4242C66.5091 32.7418 67.7126 31.4299 67.7126 31.4299C67.1239 30.8303 67.1007 30.3749 66.2018 29.5589ZM63.7078 29.879C63.8846 30.2681 64.2355 31.626 63.3974 32.6611C62.4433 30.7669 61.1324 29.1436 60.071 28.4432C59.8391 28.2932 60.1987 28.0309 60.8541 27.9443C62.829 27.5724 65.1461 28.4028 66.2481 28.6941C65.7348 29.0745 65.3171 29.2476 64.7924 29.311C65.5928 29.9798 66.1785 30.5449 66.5904 31.1734C65.8159 31.3666 65.3781 30.8793 63.7078 29.879Z" fill="black"/>
<path fill-rule="evenodd" clip-rule="evenodd" d="M47.21 59.326V57.1694C45.5338 57.9335 43.4022 58.5533 40.6589 58.7984L40.5341 59.5682C40.7661 59.5999 41.062 59.6287 41.4564 59.6547C40.4412 59.793 39.1276 59.8594 38.4086 59.8594C37.6865 59.8594 36.3756 59.793 35.3576 59.6547C35.7492 59.6287 36.0449 59.5999 36.277 59.5682L36.1522 58.7984C33.4088 58.5533 31.2745 57.9335 29.6011 57.1694V59.326L27.3275 60.2542C29.0124 61.1251 30.9497 61.8343 33.1883 62.4079L32.9216 63.3104C34.2035 63.6851 36.2537 64.0657 38.4026 64.0657C40.5515 64.0657 42.599 63.6823 43.8836 63.3104L43.6197 62.4079C45.8556 61.8343 47.7986 61.1251 49.4836 60.2542L47.21 59.326ZM28.5426 60.3033L30.0767 59.6891V57.9335C31.0626 58.3112 32.3561 58.7033 34.2122 59.0867L33.3421 61.9035C31.4485 61.4709 29.8389 60.8886 28.5426 60.3033ZM38.4055 63.5496C36.6742 63.5496 34.9835 63.293 33.5393 62.9384L34.4586 59.9832C35.0677 60.1246 36.593 60.3091 38.4055 60.3091C40.221 60.3091 41.7377 60.1217 42.3496 59.9832L43.2717 62.9384C41.8218 63.293 40.1339 63.5496 38.4055 63.5496ZM43.472 61.9035L42.6018 59.0867C44.4578 58.7061 45.7512 58.3112 46.7372 57.9335V59.6891L48.2685 60.3033C46.9723 60.8886 45.3684 61.4709 43.472 61.9035Z" fill="black"/>
<path fill-rule="evenodd" clip-rule="evenodd" d="M12.0106 31.4242C12.0106 31.4242 12.9038 33.0618 13.4228 33.4307C15.0062 31.8538 16.172 29.5704 18.7385 28.2587C17.5234 26.2694 15.8937 26.6039 15.7718 24.8337C16.5519 25.0527 17.3059 24.5395 17.3234 23.6141C16.5055 23.1672 16.2156 24.0552 15.9951 23.8275C15.8125 23.64 16.9289 23.6082 16.8246 22.458C15.7457 22.4233 15.9429 23.2018 15.6906 23.1038C15.4876 23.0318 15.9951 22.3918 15.0179 21.8267C14.4697 22.8357 15.2208 23.1528 15.0642 23.32C14.899 23.4959 14.6148 22.7377 13.6808 23.0547C13.9333 24.3032 15.1425 23.8216 14.9802 24.1907C14.8642 24.4558 14.0405 23.6775 13.7157 24.6374C14.1798 25.4794 15.015 25.2805 15.505 24.9287C15.6095 26.5461 16.6738 26.6816 17.8656 27.8061C14.6902 26.4942 10.8303 28.1059 9.3715 28.3162C9.59484 28.8151 10.0356 29.357 10.6069 29.553C9.70795 30.3777 9.68463 30.8332 9.09607 31.4299C9.09607 31.4299 10.2967 32.7418 12.0106 31.4242ZM10.2125 31.1763C10.6272 30.5478 11.2102 29.9798 12.0163 29.3139C11.4885 29.2476 11.0737 29.0745 10.5576 28.6941C11.6624 28.4028 13.9825 27.5696 15.9603 27.9443C16.6099 28.0309 16.9754 28.2932 16.7375 28.4432C15.6761 29.1436 14.3624 30.7669 13.4083 32.6611C12.5731 31.626 12.9269 30.271 13.098 29.8818C11.4305 30.8793 10.9955 31.3666 10.2125 31.1763Z" fill="black"/>
<path fill-rule="evenodd" clip-rule="evenodd" d="M37.0182 30.2217V31.1701C37.346 30.7752 37.984 30.8531 37.984 30.8531V32.2225C37.984 32.2225 37.9608 32.8971 37.7229 33.1854H38.4103H39.0976C38.8568 32.8971 38.8366 32.2225 38.8366 32.2225V30.8559C38.8366 30.8559 39.4716 30.778 39.7994 31.1731V30.2245H38.4103H37.0182V30.2217Z" fill="black"/>
</svg>
