<svg width="75" height="75" viewBox="0 0 75 75" fill="none" xmlns="http://www.w3.org/2000/svg">
<path d="M57.3267 22.6191C58.5059 24.1622 59.5043 25.8385 60.3015 27.6146L37.688 44.4852L28.2372 38.4895V31.2763L37.688 37.272L57.3267 22.6191Z" fill="#21A038"/>
<path d="M18.5923 37.9789C18.5923 37.6552 18.6001 37.3337 18.6157 37.014L12.8882 36.73C12.8688 37.1443 12.8571 37.5626 12.8571 37.9847C12.8546 41.2832 13.4957 44.5496 14.7435 47.5966C15.9913 50.6438 17.8213 53.4115 20.1285 55.7411L24.1911 51.6315C22.4151 49.8414 21.0062 47.7137 20.0454 45.3707C19.0845 43.0277 18.5907 40.5156 18.5923 37.9789Z" fill="url(#paint0_linear_83_11516)"/>
<path d="M37.6839 18.6598C38.0035 18.6598 38.3212 18.6716 38.637 18.6874L38.9236 12.889C38.513 12.8693 38.0997 12.8594 37.6839 12.8594C34.4231 12.8554 31.1939 13.5032 28.1814 14.7658C25.1688 16.0283 22.4324 17.8807 20.1292 20.2165L24.1918 24.328C25.9607 22.5301 28.0633 21.1037 30.3788 20.1309C32.6942 19.1582 35.1767 18.6582 37.6839 18.6598Z" fill="url(#paint1_linear_83_11516)"/>
<path d="M37.6828 57.3014C37.3631 57.3014 37.0453 57.3014 36.7276 57.2758L36.441 63.0723C36.853 63.0933 37.267 63.1039 37.6828 63.1039C40.9421 63.1073 44.1698 62.459 47.1808 61.1961C50.1917 59.9332 52.9264 58.0806 55.2278 55.7448L51.173 51.6353C49.4038 53.4323 47.3014 54.8578 44.9864 55.8302C42.6714 56.8026 40.1893 57.3027 37.6828 57.3014Z" fill="url(#paint2_linear_83_11516)"/>
<path d="M48.4437 22.0316L53.2705 18.431C48.8588 14.8155 43.3518 12.8474 37.6749 12.8575V18.6598C41.519 18.655 45.2739 19.8307 48.4437 22.0316Z" fill="url(#paint3_linear_83_11516)"/>
<path d="M62.5087 37.9812C62.5117 36.4718 62.3813 34.9649 62.1187 33.479L56.7754 37.4643C56.7754 37.6361 56.7754 37.8076 56.7754 37.9812C56.7768 40.6808 56.2176 43.3505 55.1343 45.8173C54.0509 48.2841 52.4673 50.4929 50.4865 52.3007L54.3405 56.6117C56.9158 54.2587 58.9738 51.3844 60.3809 48.175C61.7881 44.9655 62.513 41.4925 62.5087 37.9812Z" fill="#21A038"/>
<path d="M37.6844 57.3022C35.0168 57.3031 32.3788 56.737 29.941 55.6407C27.5034 54.5443 25.3204 52.9419 23.5334 50.9375L19.2759 54.836C21.6005 57.4428 24.4405 59.5258 27.6118 60.9503C30.7831 62.3747 34.2148 63.1086 37.6844 63.1045V57.3022Z" fill="url(#paint4_linear_83_11516)"/>
<path d="M24.8812 23.661L21.0291 19.3501C18.4531 21.7026 16.3944 24.5768 14.9865 27.7863C13.5787 30.9957 12.8532 34.4689 12.8571 37.9804H18.5923C18.5911 35.2811 19.1504 32.6113 20.2337 30.1445C21.3171 27.6778 22.9004 25.4689 24.8812 23.661Z" fill="url(#paint5_linear_83_11516)"/>
<defs>
<linearGradient id="paint0_linear_83_11516" x1="21.2884" y1="55.0171" x2="14.8875" y2="36.734" gradientUnits="userSpaceOnUse">
<stop offset="0.14" stop-color="#F1E813"/>
<stop offset="0.3" stop-color="#E6E418"/>
<stop offset="0.58" stop-color="#C9DA26"/>
<stop offset="0.89" stop-color="#A2CC39"/>
</linearGradient>
<linearGradient id="paint1_linear_83_11516" x1="21.7667" y1="21.2424" x2="37.9546" y2="15.1468" gradientUnits="userSpaceOnUse">
<stop offset="0.06" stop-color="#0FA7DF"/>
<stop offset="0.54" stop-color="#0098F8"/>
<stop offset="0.92" stop-color="#0290EA"/>
</linearGradient>
<linearGradient id="paint2_linear_83_11516" x1="36.0629" y1="59.6019" x2="54.3344" y2="55.5233" gradientUnits="userSpaceOnUse">
<stop offset="0.12" stop-color="#A2CC39"/>
<stop offset="0.28" stop-color="#86C239"/>
<stop offset="0.87" stop-color="#219F38"/>
</linearGradient>
<linearGradient id="paint3_linear_83_11516" x1="36.482" y1="14.8008" x2="52.1174" y2="19.5684" gradientUnits="userSpaceOnUse">
<stop offset="0.06" stop-color="#0290EA"/>
<stop offset="0.79" stop-color="#0C89CA"/>
</linearGradient>
<linearGradient id="paint4_linear_83_11516" x1="20.7146" y1="54.1297" x2="37.7475" y2="60.4197" gradientUnits="userSpaceOnUse">
<stop offset="0.13" stop-color="#F1E813"/>
<stop offset="0.3" stop-color="#EAE616"/>
<stop offset="0.53" stop-color="#D8DF1F"/>
<stop offset="0.8" stop-color="#BAD52D"/>
<stop offset="0.98" stop-color="#A2CC39"/>
</linearGradient>
<linearGradient id="paint5_linear_83_11516" x1="14.9936" y1="38.6828" x2="21.9544" y2="20.791" gradientUnits="userSpaceOnUse">
<stop offset="0.07" stop-color="#A2CC39"/>
<stop offset="0.26" stop-color="#81C45E"/>
<stop offset="0.92" stop-color="#0FA7DF"/>
</linearGradient>
</defs>
</svg>
