<svg width="75" height="75" viewBox="0 0 75 75" fill="none" xmlns="http://www.w3.org/2000/svg">
<path d="M45.3726 20.0254C35.344 20.0254 27.3031 28.0673 27.3031 37.8963C27.3031 47.8147 35.4344 55.7673 45.3726 55.7673C55.3109 55.7673 63.4422 47.7254 63.4422 37.8963C63.4422 28.0673 55.3109 20.0254 45.3726 20.0254ZM45.3726 44.4192C41.6684 44.4192 38.5965 41.3812 38.5965 37.7176C38.5965 34.0541 41.6684 31.016 45.3726 31.016C49.0769 31.016 52.1487 34.0541 52.1487 37.7176C52.0583 41.5599 49.0769 44.4192 45.3726 44.4192ZM27.2127 25.1186V51.1208H20.7981L12.5764 25.1186H27.2127Z" fill="#8B3FFD"/>
</svg>
