<svg width="42" height="54" viewBox="0 0 42 54" fill="none" xmlns="http://www.w3.org/2000/svg">
<g clip-path="url(#clip0_30_2964)">
<path d="M18.8302 4.71611C19.7005 4.20309 20.4615 3.51642 21.0512 2.71137C21.2963 2.37649 21.5216 1.97114 21.4174 1.57369C21.3062 1.1503 20.8329 0.883642 20.3817 0.884769C19.9305 0.885897 19.5078 1.10238 19.1498 1.36848C17.6839 2.4588 17.0935 4.52781 17.7735 6.19261L18.8296 4.71611H18.8302Z" fill="#242424"/>
<path d="M17.68 6.68691C17.6497 6.02506 17.6189 5.36263 17.5886 4.70077C17.5374 3.58677 17.4466 2.37524 16.6746 1.54764C16.4842 1.34355 16.2315 1.16202 15.9474 1.1671C15.6377 1.17273 15.3682 1.41121 15.2604 1.69252C15.1527 1.97384 15.1801 2.28842 15.2546 2.57933C15.47 3.42046 16.0458 4.12517 16.6059 4.80112C17.407 5.76798 18.2086 6.73483 19.0097 7.70113L17.6794 6.68635L17.68 6.68691Z" fill="#242424"/>
<path d="M17.1361 34.6418C18.2871 36.9543 17.0977 39.7805 15.2929 41.6606C14.3562 42.6365 12.7691 43.4844 11.6973 42.6495C10.7513 41.9126 10.9935 40.444 10.4031 39.4168C9.61949 38.0553 7.6063 37.8811 6.09378 38.4139C3.4984 39.3289 1.69886 41.7221 0.852947 44.2686C0.615998 44.9817 0.441342 45.753 0.651511 46.474C0.86168 47.1951 1.5702 47.8276 2.33752 47.7329C2.75844 47.681 3.12289 47.4296 3.44134 47.1579C4.64065 46.1352 5.45105 44.7388 6.65151 43.7167C6.88613 43.5171 7.14928 43.326 7.45784 43.2786C8.34858 43.1427 8.89234 44.1626 9.5997 44.7044C10.3094 45.2478 11.3171 45.3183 12.1846 45.0691C13.0521 44.8194 13.8042 44.29 14.4924 43.7206C17.1832 41.4943 19.1825 38.4934 20.1681 35.2016L17.1361 34.6406V34.6418Z" fill="#242424"/>
<path d="M33.0331 34.1291C30.4808 35.8649 28.4804 38.3511 27.3667 41.1716C27.1432 41.7382 26.9516 42.338 27.0122 42.9418C27.0727 43.5456 27.4407 44.1562 28.0345 44.3501C28.6178 44.5407 29.2518 44.2999 29.7973 44.0242C31.4607 43.1831 32.9103 41.9868 34.5713 41.1406C36.2317 40.2944 38.2577 39.8231 39.9769 40.5503C40.6999 40.8559 41.3764 41.4478 41.4381 42.2095C41.4731 42.643 41.3048 43.0675 41.1005 43.4543C40.1818 45.1957 38.4923 46.4862 36.6165 47.2101C34.7407 47.9345 32.6844 48.1307 30.666 48.0664C29.051 48.0151 27.4209 47.7958 25.9293 47.1943C25.3856 46.975 24.843 46.6897 24.5041 46.2235C23.7758 45.2211 24.2526 43.8207 24.9367 42.7896C25.6208 41.7585 26.5226 40.7696 26.6343 39.5485C26.8131 37.6024 24.9151 36.0673 23.0452 35.3327L33.0326 34.1279L33.0331 34.1291Z" fill="#242424"/>
<path d="M22.9532 37.5861C32.6879 37.5861 40.5794 30.2123 40.5794 21.1163C40.5794 12.0203 32.6879 4.64648 22.9532 4.64648C13.2184 4.64648 5.3269 12.0203 5.3269 21.1163C5.3269 30.2123 13.2184 37.5861 22.9532 37.5861Z" fill="#242424"/>
<path d="M29.3239 25.9314C31.5669 25.5515 32.9798 22.9984 32.4796 20.2289C31.9794 17.4594 29.7556 15.5222 27.5126 15.902C25.2695 16.2819 23.8567 18.835 24.3568 21.6045C24.857 24.3741 27.0808 26.3113 29.3239 25.9314Z" fill="white"/>
<path d="M20.2541 27.5281C22.4971 27.1482 23.91 24.5951 23.4098 21.8256C22.9096 19.056 20.6858 17.1188 18.4427 17.4987C16.1997 17.8786 14.7868 20.4317 15.287 23.2012C15.7872 25.9707 18.011 27.9079 20.2541 27.5281Z" fill="white"/>
<path d="M21.5969 25.5925C22.4252 25.391 22.8718 24.3608 22.5944 23.2915C22.317 22.2222 21.4207 21.5187 20.5925 21.7202C19.7642 21.9216 19.3176 22.9518 19.595 24.0211C19.8724 25.0904 20.7686 25.7939 21.5969 25.5925Z" fill="#242424"/>
<path d="M30.3196 24.0026C31.1478 23.8012 31.5944 22.771 31.317 21.7017C31.0397 20.6324 30.1434 19.9289 29.3151 20.1303C28.4869 20.3318 28.0403 21.362 28.3176 22.4313C28.595 23.5006 29.4913 24.2041 30.3196 24.0026Z" fill="#242424"/>
<path d="M7.06128 17.1559C7.14628 16.7686 7.25166 16.3853 7.37683 16.0081C7.43912 15.8198 7.50666 15.6326 7.57943 15.4472C7.61436 15.3581 7.64987 15.2696 7.68655 15.1816C7.70518 15.1377 7.72381 15.0937 7.74244 15.0497C7.72148 15.0988 7.75292 15.0266 7.75467 15.0226C7.76748 14.9933 7.78087 14.9646 7.79367 14.9353C8.12203 14.2097 8.52606 13.5157 8.99705 12.8679C9.06284 12.7772 9.13037 12.6875 9.19907 12.5985C9.23342 12.5539 9.26777 12.51 9.3027 12.466C9.2701 12.5066 9.31958 12.4446 9.32191 12.4423C9.34229 12.4175 9.36208 12.3927 9.38246 12.3679C9.52509 12.1942 9.67297 12.0251 9.8255 11.8594C9.9169 11.7601 9.93379 11.5967 9.8255 11.5008C9.72595 11.4123 9.55246 11.3948 9.45523 11.5008C8.89284 12.1108 8.39274 12.7755 7.96891 13.4824C7.54508 14.1894 7.19868 14.933 6.92913 15.7037C6.77834 16.1355 6.65434 16.5753 6.55595 17.0206C6.52742 17.1503 6.59554 17.3008 6.73875 17.333C6.87033 17.3623 7.03043 17.2946 7.06128 17.1559Z" fill="white"/>
<path d="M8.8172 38.9199C7.80943 38.7694 6.75335 38.9983 5.93072 39.5914C5.82127 39.6703 5.75432 39.8146 5.83699 39.9386C5.90685 40.0435 6.07801 40.1145 6.19561 40.0294C6.3825 39.8947 6.58219 39.778 6.79235 39.6816C6.81797 39.6697 6.843 39.6584 6.86862 39.6477C6.87968 39.6432 6.89074 39.6381 6.90181 39.6336C6.87619 39.6438 6.87735 39.6432 6.90588 39.6319C6.9577 39.6116 7.01009 39.5919 7.06307 39.5733C7.17252 39.5355 7.2843 39.5028 7.39724 39.4752C7.51019 39.4476 7.6243 39.4256 7.73957 39.4087C7.74481 39.4081 7.8234 39.3985 7.76519 39.4047C7.79721 39.4014 7.82864 39.3974 7.86066 39.3946C7.91655 39.3895 7.97244 39.385 8.02892 39.3828C8.14128 39.3771 8.25364 39.3771 8.36542 39.3816C8.42131 39.3839 8.47778 39.3878 8.53367 39.3929C8.56569 39.3957 8.59771 39.3997 8.62915 39.4031C8.66059 39.407 8.66117 39.407 8.6309 39.4031C8.64661 39.4053 8.66292 39.4076 8.67864 39.4098C8.8137 39.4301 8.96682 39.3766 9.00117 39.2328C9.02969 39.1116 8.96274 38.9425 8.81836 38.9205L8.8172 38.9199Z" fill="white"/>
<path d="M39.2849 41.7935C39.3151 41.7968 39.3122 41.7963 39.2767 41.7918C39.2901 41.794 39.3041 41.7963 39.3175 41.7985C39.3443 41.8036 39.3716 41.8098 39.3978 41.8166C39.424 41.8233 39.4508 41.8312 39.4764 41.8402C39.4892 41.8448 39.502 41.8493 39.5154 41.8543C39.4846 41.8414 39.4828 41.8408 39.5102 41.8521C39.5538 41.8724 39.5963 41.8932 39.6377 41.918C39.6616 41.9321 39.6837 41.9479 39.707 41.962C39.7302 41.9789 39.7297 41.9778 39.7035 41.9586C39.7145 41.9671 39.725 41.9755 39.7355 41.984C39.7774 42.0184 39.8176 42.0562 39.8543 42.0956C39.8682 42.1109 39.881 42.1261 39.8944 42.1413C39.8519 42.0934 39.9078 42.1599 39.9148 42.1706C39.9457 42.2151 39.9707 42.2619 39.9969 42.3093C40.0091 42.3352 40.0085 42.3335 39.9957 42.3037C40.001 42.3161 40.0062 42.3285 40.0109 42.3409C40.019 42.3629 40.0266 42.3848 40.0336 42.4074C40.0406 42.4299 40.0464 42.4531 40.0516 42.4762C40.0545 42.4891 40.0668 42.5771 40.0592 42.5089C40.065 42.563 40.0679 42.6165 40.0662 42.6712C40.065 42.6983 40.0627 42.7254 40.0603 42.7524C40.0557 42.8071 40.0714 42.7073 40.058 42.7654C40.0458 42.8184 40.0347 42.8714 40.0173 42.9232C40.0085 42.9492 39.9986 42.9745 39.9887 42.9999C40.0126 42.9402 39.9777 43.0213 39.9719 43.032C39.9497 43.0743 39.9247 43.1155 39.8973 43.1549C39.8904 43.1651 39.8345 43.2327 39.8758 43.1854C39.8577 43.2062 39.8397 43.2265 39.8205 43.2463C39.8013 43.266 39.7815 43.2852 39.7605 43.3032C39.7518 43.3111 39.6808 43.3658 39.7326 43.328C39.6237 43.4075 39.5556 43.5507 39.6388 43.6753C39.7081 43.7796 39.8805 43.8518 39.9975 43.7661C40.3631 43.4983 40.5884 43.089 40.5907 42.6408C40.5931 42.1926 40.3509 41.7895 39.98 41.5296C39.7757 41.3864 39.5341 41.3103 39.2849 41.2861C39.1481 41.2725 39.0171 41.4123 39.0229 41.5398C39.0299 41.6886 39.1382 41.7788 39.2849 41.7935Z" fill="white"/>
</g>
<defs>
<clipPath id="clip0_30_2964">
<rect width="40.8857" height="53" fill="white" transform="translate(0.557129 0.884766)"/>
</clipPath>
</defs>
</svg>
